<svg width="278" height="69" viewBox="0 0 278 69" fill="none" xmlns="http://www.w3.org/2000/svg">
<path d="M20.1427 29.6304V29.6917L0.763794 29.6611L1.38096 30.3362L2.46099 31.5944L2.76957 32.1468L3.44845 32.6378L4.12733 32.8833L5.05307 34.0188L6.22568 35.3998L7.028 36.0749L8.84863 37.4252L9.77437 38.2538L10.0521 39.3585L10.0212 39.512L10.515 40.2178L10.7618 40.4326L10.8853 40.985L10.731 41.7215L10.8544 42.6115L11.595 43.9618L11.8419 44.33L13.107 45.1279L13.2305 45.3427L13.5391 45.8644L14.5265 46.4782L15.4214 46.7237L15.6066 46.6316L16.0077 47.2761L16.2854 47.3988L16.8717 47.4295L17.3655 47.9205L18.1678 48.2581L18.3838 48.5957L18.8775 48.565L18.9392 48.6264L19.1244 48.4729L19.0935 48.2581L19.9576 47.4602L20.3587 46.3861L20.729 45.5882L21.0376 44.821L22.1485 43.8083L22.2102 43.6549L22.6114 43.5321L25.3269 43.4401L27.6721 43.6549L29.1224 44.3914H29.6162V44.9131L30.3876 45.5269L31.5294 46.3554L32.6402 47.3988L32.6094 47.5523L33.1957 48.0433L33.2883 48.9639L33.5351 49.2095L33.8437 49.7311L34.7695 51.3576L34.6769 51.6031L35.078 52.1862L35.0472 52.5545L35.7569 53.5058L35.8186 53.7206L36.4667 53.9968L37.4233 55.163L37.3924 55.4085L37.7318 56.0529L37.7627 56.2984L38.1639 56.636L38.9662 57.2191L39.2439 57.127L39.8919 57.7408L39.9845 59.3672L39.8611 59.4593L40.4474 60.2265V60.8096L40.6942 61.6689L41.3422 62.2213L41.9903 64.1239L42.2988 64.2467L42.4223 64.8911L42.5457 64.9832L44.1812 65.3514L44.5206 65.4128L44.9526 65.8425L45.755 65.9345L46.0327 66.1493L46.5264 66.3948L46.7424 66.4255L47.6682 67.0086L48.2853 67.1007L49.3036 66.8859L49.7357 66.9779L50.4763 67.1007L51.1551 67.4996L51.6797 67.9293L52.1117 68.1441L52.8832 67.561L52.7906 66.8859L52.5129 66.671L52.5746 66.1187L52.266 65.1059L51.5871 63.6022L51.0008 62.2213L52.7289 55.7154L53.5621 54.273L53.9015 53.6899L55.0124 52.9227L55.6913 52.3703H55.7221C48.0693 42.857 35.3249 34.0802 20.1427 29.6304Z" fill="#D2232A"/>
<path d="M61.0913 49.3937V49.3324L62.9428 48.289L63.3439 47.89L63.6216 47.5218L64.9177 45.6805L66.1211 44.9133L68.6515 43.3482L70.0401 42.6116L70.5956 41.7831L71.6139 40.0645L71.7065 39.6656L71.5522 38.837L71.1819 38.1312L71.7682 36.1057L71.9225 33.2211L71.6448 32.9449L71.2127 32.0242L70.6881 31.3184L69.855 29.2009L68.8058 28.0961L68.2504 21.4368L68.0035 18.1531L67.9418 18.0918L66.3371 18.4293L66.1829 18.3066L65.5966 17.9383L65.2571 17.6621L65.0411 17.7849L64.7634 17.7235L63.6833 17.2939L61.1838 16.588H60.3198L60.1655 16.7108L59.4249 16.588L58.9621 16.987L57.7586 17.0177L57.234 17.0791L56.0614 18.0611L55.3208 17.6008L54.3333 17.2632L52.9447 17.2325L52.3893 16.7415L51.3092 16.987L49.9515 17.1711L48.1309 17.2325L47.1434 17.0177L46.7114 16.588L44.7056 16.1584L43.7181 15.7288L43.0393 15.9743L41.8667 15.4526L40.5089 15.3298L40.1077 14.2864L36.127 13.2123L36.0653 0.75293H20.0808L20.1425 24.6284C36.1579 30.367 49.0257 41.0466 56.4625 51.9102L57.3883 51.3578L61.0913 49.3937Z" fill="black"/>
<path d="M56.4317 51.8792C48.9949 41.0156 36.1271 30.3361 20.1117 24.5974V29.6303C35.2939 34.0801 48.0383 42.8262 55.8454 52.2168L56.4317 51.8792Z" fill="white"/>
<path d="M52.3276 68.5429L51.6179 68.2053L51.0933 67.745L50.507 67.4074L49.8281 67.2847L49.4886 67.2233L48.4703 67.4381L47.668 67.3154L46.7423 66.7323L46.5571 66.7016L45.94 66.3947L45.7548 66.2413L44.9216 66.1492L44.4588 65.7196L44.2119 65.6889L42.453 65.2899L42.1444 65.0138L42.0518 64.4614L41.7741 64.3386L41.1261 62.3746L40.4781 61.7915L40.1695 60.7788V60.2878L39.4289 59.3057L39.7066 59.0909L39.6449 57.8327L39.3055 57.5258L39.0586 57.6179L38.0711 56.8814L37.5465 56.4211L37.5157 56.0835L37.1762 55.4083L37.2071 55.1935L36.4357 54.2422L35.6951 53.9353L35.6025 53.5977L34.831 52.5543L34.8619 52.1861L34.4299 51.5416L34.5224 51.2961L33.6893 49.8538L33.4116 49.3935L33.103 49.0866L33.0104 48.1966L32.3624 47.6749L32.3932 47.4908L31.4675 46.6315L30.3257 45.8029L29.616 45.2199L29.4 45.1278V44.7288H29.1531L27.6719 43.9616L25.4502 43.7468L22.7964 43.8389L22.6421 43.8696L22.6112 43.931L21.5003 44.9437L21.2226 45.6495L20.8523 46.4474L20.4203 47.6135L19.618 48.3194L19.6488 48.5342L19.0625 49.0252L18.8465 48.8718L18.2602 48.9024L17.9825 48.4728L17.211 48.1659L16.779 47.7363L16.2853 47.7056L15.7916 47.4908L15.5138 47.0305L14.4338 46.7543L13.292 46.0791L12.86 45.3426L11.5949 44.5447L11.2863 44.0844L10.484 42.6727L10.3297 41.6293L10.484 40.8928L10.4222 40.5552L10.2371 40.4018L9.58907 39.4812L9.65079 39.2663L9.43478 38.3764L8.60161 37.6399L6.78098 36.2896L5.91696 35.5838L4.74435 34.1721L3.88032 33.1287L3.26316 32.8832L2.46084 32.3001L2.12141 31.717L1.07223 30.4895L0.269917 29.6302L0.146484 29.262L19.7105 29.2927L19.6488 0.322998H36.4665L36.5282 12.8745L40.4164 13.9486L40.7866 14.9306L41.9593 15.0227L43.0393 15.5137L43.7182 15.2375L44.8291 15.7285L46.9274 16.1888L47.3594 16.6491L48.1617 16.8333L49.9207 16.7719L51.2476 16.5878L52.5127 16.3116L53.099 16.8333L54.3951 16.8639L55.4751 17.2322L55.9997 17.5391L57.018 16.6798L57.6969 16.5878L58.7461 16.5571L59.2398 16.1274L59.9804 16.2502L60.1038 16.1274H61.153L63.7451 16.8639L64.8251 17.2936L64.8869 17.3243L65.2263 17.1401L65.7817 17.6005L66.368 17.938L66.3989 17.9687L67.9727 17.6312L68.343 17.9073L68.6207 21.3751L69.1761 27.881L70.1636 28.9244L70.9968 31.0726L71.5214 31.7784L71.9225 32.6377L72.2928 33.0059L72.1385 36.1055L71.5831 38.0388L71.8916 38.6526L72.0768 39.6039L71.9225 40.1563L70.8733 41.9362L70.2562 42.8876L68.775 43.6548L66.2755 45.2199L65.1646 45.9564L63.8994 47.7363L63.5908 48.1352L63.1279 48.5956L61.4307 49.5469V49.6083L57.5118 51.6644L56.0306 52.5543L55.3825 53.1067L54.3334 53.8432L54.0248 54.3649L53.2225 55.7459L51.5253 62.0677L52.0807 63.3259L52.7905 64.8603L53.1299 65.9651L53.0682 66.3947L53.2842 66.5789L53.4385 67.6529L53.1916 67.8371L52.3276 68.5429ZM51.8647 67.8371L52.2967 68.0519L53.0682 67.4688L52.9756 66.7937L52.6979 66.5789L52.7596 66.0265L52.451 65.0138L51.7721 63.51L51.1858 62.1291L52.9139 55.6232L53.7471 54.1808L54.0865 53.5977L55.1974 52.8305L55.8763 52.2781L57.3575 51.3882L61.0604 49.4548V49.3935L62.9119 48.3501L63.3131 47.9511L63.5908 47.5828L64.8869 45.7416L66.0903 44.9743L68.6207 43.4092L70.0093 42.6727L70.5647 41.8442L71.5831 40.1256L71.6756 39.7267L71.5214 38.8981L71.1511 38.1923L71.7374 36.1668L71.8916 33.2821L71.6139 33.0059L71.1819 32.0853L70.6573 31.3795L69.8242 29.262L68.775 28.1572L68.2195 21.4979L67.9727 18.2142L67.911 18.1529L66.3063 18.4904L66.152 18.3677L65.5657 17.9994L65.2263 17.7232L65.0103 17.846L64.7326 17.7846L63.6525 17.355L61.153 16.6491H60.3198L60.1656 16.7719L59.425 16.6491L58.9621 17.0481L57.7586 17.0788L57.234 17.1401L56.0614 18.1222L55.3208 17.6618L54.3334 17.3243L52.9448 17.2936L52.3893 16.8026L51.3093 17.0481L49.9515 17.2322L48.1309 17.2936L47.1434 17.0788L46.7114 16.6491L44.7056 16.2195L43.7182 15.7899L43.0393 15.974L41.8667 15.4523L40.5089 15.3295L40.1078 14.2861L36.1271 13.212L36.0654 0.752633H20.0808L20.1426 29.7223L0.763647 29.6609L1.38081 30.3361L2.46084 31.5943L2.76943 32.1467L3.4483 32.6377L4.12718 32.8832L5.05293 34.0187L6.22554 35.3996L7.02785 36.0748L8.84848 37.425L9.77422 38.2536L10.0519 39.3584L10.0211 39.5118L10.5148 40.2177L10.7617 40.4325L10.8851 40.9849L10.7308 41.7214L10.8543 42.6114L11.5949 43.9616L11.8417 44.3299L13.1069 45.1278L13.2303 45.3426L13.5389 45.8643L14.5264 46.4781L15.4213 46.7236L15.6064 46.6315L16.0076 47.276L16.2853 47.3987L16.8716 47.4294L17.3653 47.9204L18.1676 48.258L18.3836 48.5956L18.8774 48.5649L18.9391 48.6262L19.1242 48.4728L19.0934 48.258L19.9574 47.4601L20.3586 46.386L20.7289 45.5881L21.0374 44.8209L22.1483 43.8082L22.2101 43.6548L22.6112 43.532L25.3267 43.4399L27.6719 43.6548L29.1223 44.3913H29.616V44.913L30.3875 45.5267L31.5292 46.3553L32.6401 47.3987L32.6092 47.5522L33.1955 48.0432L33.2881 48.9638L33.535 49.2093L33.8436 49.731L34.7693 51.3575L34.6767 51.603L35.0779 52.1861L35.047 52.5543L35.7568 53.5057L35.8185 53.7205L36.4665 53.9967L37.4231 55.1628L37.3923 55.4083L37.7317 56.0528L37.7626 56.2983L38.1637 56.6359L38.966 57.2189L39.2437 57.1269L39.8918 57.7406L39.9843 59.3671L39.8609 59.4592L40.4472 60.2264V60.8095L40.6941 61.6687L41.3421 62.2211L41.9901 64.1238L42.2987 64.2465L42.4221 64.891L42.5456 64.9831L44.181 65.3513L44.5205 65.4127L44.9525 65.8423L45.7548 65.9344L46.0325 66.1492L46.5263 66.3947L46.7423 66.4254L47.668 67.0085L48.2852 67.1006L49.3035 66.8857L49.7355 66.9778L50.4761 67.1006L51.155 67.4995L51.8647 67.8371Z" fill="white"/>
<path d="M54.8889 38.9901C54.8889 38.6526 54.8889 38.315 54.8581 37.9774L57.265 36.5044C57.1724 35.8599 57.049 35.2462 56.8947 34.6324L54.1175 34.1721C53.9015 33.5276 53.6238 32.8832 53.3152 32.2694L54.9507 29.9985C54.6112 29.4461 54.2718 28.9244 53.8706 28.4027L51.1242 29.0472C50.6614 28.5255 50.1676 28.0344 49.6739 27.6048L50.3219 24.8736C49.7973 24.4746 49.2728 24.137 48.7173 23.7995L46.4338 25.4259C45.8166 25.1191 45.1686 24.8429 44.5206 24.628L44.0577 21.8661C43.6566 21.774 43.2863 21.682 42.8851 21.6206H42.0828L40.6633 23.8915C40.3239 23.8608 39.9845 23.8608 39.645 23.8608C39.3056 23.8608 38.9661 23.8608 38.6267 23.8915L37.2072 21.6206H36.4049C36.0038 21.682 35.6335 21.774 35.2323 21.8661L34.7694 24.628C34.1214 24.8429 33.4734 25.1191 32.8562 25.4259L30.5727 23.7995C30.0173 24.137 29.4927 24.4746 28.9681 24.8736L29.6161 27.6048C29.3384 27.8503 29.0607 28.0958 28.783 28.372C29.3075 28.6482 29.863 28.9244 30.3876 29.2006C32.8562 26.9297 36.158 25.518 39.7685 25.518C47.3596 25.518 53.562 31.6557 53.562 39.2356C53.562 41.66 52.914 43.9616 51.8031 45.9564C52.698 46.9998 53.562 48.0125 54.3952 49.0559C54.6112 48.749 54.8272 48.4114 55.0124 48.0739L53.3769 45.8029C53.6855 45.1892 53.9632 44.5447 54.1792 43.9003L56.9564 43.4399C57.1107 42.8262 57.2342 42.1817 57.3267 41.5679L54.9198 40.0949C54.8889 39.696 54.8889 39.3277 54.8889 38.9901Z" fill="white"/>
<path d="M39.7683 28.0345C45.8782 28.0345 50.8464 32.9753 50.8464 39.0516C50.8464 40.7394 50.4761 42.3352 49.7664 43.7775C50.3527 44.3913 50.9081 44.9744 51.4327 45.5881C52.4819 43.6855 53.0682 41.5066 53.0682 39.205C53.0682 31.8705 47.0817 25.917 39.7066 25.917C36.2505 25.917 33.0721 27.2366 30.696 29.3848C31.3749 29.753 32.0538 30.1213 32.7327 30.5202C34.7076 28.9551 37.1145 28.0345 39.7683 28.0345Z" fill="white"/>
<path d="M39.7685 28.3105C37.2381 28.3105 34.8929 29.2005 33.0414 30.6429C33.2882 30.7656 33.5043 30.919 33.7511 31.0418C33.8746 30.9497 33.9671 30.8884 34.0906 30.7963L34.9237 31.6556C35.078 31.5635 35.2015 31.4714 35.3557 31.3794L34.9546 30.2439C35.2015 30.1212 35.4483 29.9984 35.6952 29.8756L36.3741 30.8884C36.5284 30.827 36.6826 30.7656 36.8678 30.7042L36.6826 29.5074C36.9295 29.4153 37.2072 29.3539 37.485 29.2926L37.9478 30.3973C38.1021 30.3667 38.2873 30.336 38.4724 30.3053L38.5033 29.0778C38.781 29.0471 39.0587 29.0164 39.3364 29.0164L39.5833 30.2132C39.6759 30.2132 39.7685 30.2132 39.8302 30.2132C39.9227 30.2132 40.0153 30.2132 40.077 30.2132L40.3239 29.0164C40.6016 29.0164 40.8793 29.0471 41.1571 29.0778L41.1879 30.3053C41.3731 30.336 41.5274 30.3667 41.7125 30.3973L42.1754 29.2926C42.4531 29.3539 42.7 29.446 42.9777 29.5074L42.7926 30.7042C42.9468 30.7656 43.132 30.827 43.2863 30.8884L43.9652 29.8756C44.212 29.9984 44.4589 30.1212 44.7058 30.2439L44.3046 31.3794C44.4589 31.4714 44.6132 31.5635 44.7366 31.6556L45.5698 30.7963C45.7858 30.9497 46.0018 31.1032 46.2178 31.2873L45.6006 32.3307C45.7241 32.4535 45.8475 32.5455 45.9709 32.6683L46.9584 31.9624C47.1435 32.1466 47.3287 32.3614 47.5138 32.5762L46.7115 33.4969C46.8041 33.6196 46.9275 33.773 47.0201 33.8958L48.131 33.3741C48.2853 33.5889 48.4396 33.8344 48.563 34.0799L47.6064 34.8471C47.699 35.0006 47.7607 35.154 47.8533 35.3075L49.0259 35.0006C49.1493 35.2461 49.2419 35.4916 49.3345 35.7678L48.2544 36.3509C48.3162 36.5043 48.347 36.6884 48.4087 36.8419L49.6122 36.7498C49.6739 37.026 49.7356 37.2715 49.7665 37.5477L48.5939 37.916C48.6247 38.1001 48.6247 38.2535 48.6556 38.4377L49.8591 38.5911C49.8591 38.7138 49.8591 38.8673 49.8591 38.99C49.8591 39.1128 49.8591 39.2662 49.8591 39.389L48.6556 39.5424C48.6556 39.7266 48.6247 39.88 48.5939 40.0641L49.7665 40.4324C49.7356 40.7086 49.6739 40.9848 49.6122 41.2303L48.4087 41.1689C48.3779 41.3223 48.3162 41.5065 48.2544 41.6599L49.3345 42.243C49.2419 42.4885 49.1493 42.734 49.0568 42.9795C49.211 43.1329 49.3653 43.2864 49.5196 43.4398C50.1676 42.0589 50.5071 40.5551 50.5071 38.9594C50.5379 33.1286 45.7241 28.3105 39.7685 28.3105Z" fill="white"/>
<path d="M277.302 42.5808H76.8169V61.4541H277.302V42.5808Z" fill="black"/>
<path d="M89.6848 50.222H88.3579C88.3579 50.1606 88.3579 50.0992 88.3579 50.0685C88.327 49.6696 88.2344 49.4241 88.0801 49.332C87.9259 49.24 87.5864 49.1786 87.0618 49.1786C86.4138 49.1786 86.0127 49.24 85.7966 49.3627C85.6115 49.4855 85.4881 49.731 85.4881 50.0992C85.4881 50.5289 85.5806 50.8051 85.7349 50.8971C85.8892 50.9892 86.4138 51.0506 87.3087 51.1119C88.3579 51.1733 89.0368 51.3268 89.3453 51.5723C89.6539 51.8178 89.8082 52.3088 89.8082 53.076C89.8082 54.0273 89.6231 54.6104 89.2528 54.8866C88.8825 55.1628 88.0801 55.2855 86.8458 55.2855C85.7349 55.2855 84.9943 55.1628 84.624 54.8866C84.2537 54.6104 84.0686 54.0887 84.0686 53.2601V53.0146H85.3646V53.168C85.3646 53.6591 85.4572 53.9659 85.6115 54.058C85.7966 54.1808 86.2595 54.2114 87.031 54.2114C87.6481 54.2114 88.0184 54.1501 88.1727 54.0273C88.327 53.9046 88.4196 53.5977 88.4196 53.1374C88.4196 52.7998 88.3579 52.585 88.2344 52.4622C88.111 52.3395 87.8333 52.2781 87.4013 52.2474L86.6607 52.186C85.5498 52.1246 84.8092 51.9712 84.5006 51.7257C84.192 51.4802 84.0377 50.9585 84.0377 50.1606C84.0377 49.332 84.2229 48.7796 84.5932 48.5034C84.9635 48.2272 85.7349 48.1045 86.8458 48.1045C87.895 48.1045 88.6356 48.2272 89.0059 48.4727C89.3762 48.7183 89.5613 49.2093 89.5613 49.9458V50.222H89.6848Z" fill="white"/>
<path d="M93.1717 49.3012V51.1118H96.5044V52.0939H93.1717V54.0886H96.7204V55.2241H91.8448V48.1658H96.6896V49.3012H93.1717V49.3012Z" fill="white"/>
<path d="M98.9114 55.2241V48.1658H102.398C103.262 48.1658 103.88 48.3192 104.188 48.6261C104.528 48.933 104.682 49.4547 104.682 50.2526C104.682 50.9584 104.589 51.4494 104.435 51.7256C104.281 52.0018 103.941 52.1552 103.417 52.278V52.3394C104.188 52.4008 104.589 52.8304 104.589 53.7204V55.2855H103.232V53.9965C103.232 53.26 102.861 52.9225 102.151 52.9225H100.207V55.2855H98.9114V55.2241ZM100.238 51.7256H102.182C102.645 51.7256 102.954 51.6335 103.108 51.4801C103.262 51.3267 103.324 50.9891 103.324 50.4981C103.324 50.0071 103.262 49.6695 103.139 49.5161C103.016 49.3626 102.738 49.3012 102.275 49.3012H100.238V51.7256V51.7256Z" fill="white"/>
<path d="M111.471 48.1965H112.89L110.607 55.2548H108.539L106.286 48.1965H107.675L109.002 52.186C109.125 52.5542 109.311 53.1987 109.557 54.1193H109.588L109.712 53.6283C109.866 53.0453 110.02 52.5542 110.144 52.186L111.471 48.1965Z" fill="white"/>
<path d="M116.007 48.1965V55.2548H114.649V48.1965H116.007Z" fill="white"/>
<path d="M125.017 48.1965V55.2548H122.734L120.697 51.3881C120.605 51.204 120.45 50.8664 120.234 50.3754L120.018 49.8537L119.802 49.3627H119.741L119.771 49.823L119.802 50.2833V51.204V55.2548H118.445V48.1965H120.728L122.58 51.7564C122.734 52.0632 122.919 52.4622 123.135 52.9225L123.413 53.5056L123.69 54.0887H123.721V53.6283V53.168V52.2474V48.1965H125.017V48.1965Z" fill="white"/>
<path d="M130.232 51.4803H133.349L133.38 52.8919C133.38 53.9046 133.195 54.5798 132.794 54.856C132.392 55.1628 131.559 55.2856 130.201 55.2856C128.967 55.2856 128.165 55.1015 127.764 54.7025C127.363 54.3036 127.177 53.5057 127.177 52.3088C127.177 50.7744 127.27 49.7924 127.424 49.3935C127.609 48.9025 127.918 48.5649 128.319 48.3808C128.72 48.1966 129.399 48.1353 130.356 48.1353C131.621 48.1353 132.423 48.258 132.794 48.5342C133.164 48.8104 133.349 49.3935 133.349 50.3141H131.991C131.96 49.8538 131.868 49.5776 131.683 49.4548C131.498 49.3321 131.065 49.3014 130.356 49.3014C129.584 49.3014 129.091 49.3935 128.875 49.5776C128.659 49.7617 128.566 50.222 128.566 50.9279V51.6337V52.5543C128.566 53.2602 128.659 53.6898 128.875 53.8739C129.091 54.0581 129.553 54.1501 130.325 54.1501C131.065 54.1501 131.528 54.0581 131.714 53.9046C131.899 53.7512 132.022 53.3522 132.022 52.7692V52.493H130.232V51.4803V51.4803Z" fill="white"/>
<path d="M147.606 48.1965V55.2548H146.248V51.4188C146.248 51.1119 146.248 50.7743 146.279 50.3754L146.309 49.8537L146.34 49.332H146.309L146.155 49.823L146.001 50.314C145.847 50.7436 145.754 51.0812 145.661 51.296L144.119 55.2855H142.884L141.31 51.3574C141.218 51.1426 141.094 50.805 140.971 50.3754L140.817 49.8844L140.662 49.3934H140.632L140.662 49.9151L140.693 50.4368C140.724 50.8357 140.724 51.1733 140.724 51.4495V55.2855H139.366V48.2272H141.557L142.822 51.4802C142.915 51.695 143.008 52.0326 143.162 52.4622L143.316 52.9532L143.47 53.4442H143.501L143.656 52.9532L143.81 52.4622C143.933 52.0632 144.057 51.7257 144.149 51.4802L145.384 48.1965H147.606Z" fill="white"/>
<path d="M151.37 49.3012V51.2039H154.548V52.3394H151.37V55.2241H150.012V48.1658H154.703V49.3012H151.37V49.3012Z" fill="white"/>
<path d="M159.517 51.4803H162.633L162.664 52.8919C162.664 53.9046 162.479 54.5798 162.078 54.856C161.708 55.1628 160.844 55.2856 159.486 55.2856C158.252 55.2856 157.449 55.1015 157.048 54.7025C156.647 54.3036 156.462 53.5057 156.462 52.3088C156.462 50.7744 156.554 49.7924 156.709 49.3935C156.894 48.9025 157.202 48.5649 157.604 48.3808C158.005 48.1966 158.684 48.1353 159.64 48.1353C160.905 48.1353 161.708 48.258 162.078 48.5342C162.448 48.8104 162.633 49.3935 162.633 50.3141H161.276C161.245 49.8538 161.152 49.5776 160.967 49.4548C160.782 49.3321 160.35 49.3014 159.609 49.3014C158.838 49.3014 158.344 49.3935 158.128 49.5776C157.912 49.7617 157.82 50.222 157.82 50.9279V51.6337V52.5543C157.82 53.2602 157.912 53.6898 158.128 53.8739C158.344 54.0581 158.807 54.1501 159.578 54.1501C160.319 54.1501 160.782 54.0581 160.967 53.9046C161.152 53.7512 161.276 53.3522 161.276 52.7692V52.493H159.517V51.4803Z" fill="white"/>
<path d="M165.904 53.9658V55.224H164.732V53.9658H165.904Z" fill="white"/>
<path d="M175.007 48.1045C176.303 48.1045 177.137 48.3193 177.507 48.7489C177.877 49.1786 178.062 50.1299 178.062 51.6029C178.062 53.2294 177.877 54.2421 177.507 54.6411C177.137 55.0707 176.242 55.2549 174.791 55.2549C173.495 55.2549 172.662 55.04 172.292 54.6411C171.922 54.2115 171.736 53.3215 171.736 51.9098C171.736 50.222 171.922 49.1786 172.292 48.7489C172.662 48.3193 173.557 48.1045 175.007 48.1045ZM174.884 49.2706C173.989 49.2706 173.465 49.3934 173.31 49.6082C173.156 49.8537 173.063 50.6516 173.063 52.0019C173.063 53.0146 173.156 53.6284 173.341 53.8432C173.526 54.058 174.051 54.1501 174.915 54.1501C175.748 54.1501 176.242 54.0273 176.427 53.8125C176.581 53.567 176.674 52.8612 176.674 51.695C176.674 50.5289 176.581 49.823 176.427 49.6082C176.273 49.3627 175.779 49.2706 174.884 49.2706Z" fill="white"/>
<path d="M184.666 48.1965H186.086L183.802 55.2548H181.735L179.482 48.1965H180.871L182.197 52.186C182.321 52.5542 182.506 53.1987 182.753 54.1193H182.784L182.907 53.6283C183.061 53.0453 183.216 52.5542 183.339 52.186L184.666 48.1965Z" fill="white"/>
<path d="M189.079 49.3012V51.1118H192.411V52.0939H189.079V54.0886H192.597V55.2241H187.721V48.1658H192.566V49.3012H189.079V49.3012Z" fill="white"/>
<path d="M194.788 55.2241V48.1658H198.275C199.139 48.1658 199.756 48.3192 200.064 48.6261C200.404 48.933 200.558 49.4547 200.558 50.2526C200.558 50.9584 200.466 51.4494 200.311 51.7256C200.157 52.0018 199.817 52.1552 199.293 52.278V52.3394C200.064 52.4008 200.466 52.8304 200.466 53.7204V55.2855H199.108V53.9965C199.108 53.26 198.737 52.9225 198.028 52.9225H196.084V55.2855H194.788V55.2241ZM196.114 51.7256H198.059C198.521 51.7256 198.83 51.6335 198.984 51.4801C199.139 51.3267 199.2 50.9891 199.2 50.4981C199.2 50.0071 199.139 49.6695 199.015 49.5161C198.892 49.3626 198.614 49.3012 198.151 49.3012H196.114V51.7256Z" fill="white"/>
<path d="M210.741 48.1965V55.2548H209.384V49.3627L207.532 51.1733L206.73 50.314L209.013 48.1965H210.741Z" fill="white"/>
<path d="M217.221 48.1353C218.517 48.1353 219.32 48.3194 219.628 48.7183C219.937 49.0866 220.091 50.0993 220.091 51.7258C220.091 53.3522 219.937 54.365 219.628 54.7332C219.32 55.1015 218.517 55.3163 217.221 55.3163C215.925 55.3163 215.123 55.1322 214.814 54.7332C214.506 54.365 214.352 53.3522 214.352 51.7258C214.352 50.0993 214.506 49.0866 214.814 48.7183C215.123 48.3194 215.925 48.1353 217.221 48.1353ZM217.098 49.2707C216.481 49.2707 216.08 49.3628 215.925 49.5469C215.771 49.731 215.678 50.13 215.678 50.8051V51.7258V52.585C215.678 53.2909 215.771 53.7512 215.925 53.9046C216.08 54.0888 216.512 54.1501 217.221 54.1501C217.931 54.1501 218.394 54.0274 218.517 53.7819C218.672 53.5364 218.733 52.8305 218.733 51.6644C218.733 50.4676 218.672 49.7924 218.517 49.5776C218.394 49.3628 217.931 49.2707 217.098 49.2707Z" fill="white"/>
<path d="M225.059 48.1353C226.355 48.1353 227.158 48.3194 227.466 48.7183C227.775 49.0866 227.929 50.0993 227.929 51.7258C227.929 53.3522 227.775 54.365 227.466 54.7332C227.158 55.1015 226.355 55.3163 225.059 55.3163C223.763 55.3163 222.961 55.1322 222.652 54.7332C222.344 54.365 222.19 53.3522 222.19 51.7258C222.19 50.0993 222.344 49.0866 222.652 48.7183C222.961 48.3194 223.763 48.1353 225.059 48.1353ZM224.967 49.2707C224.35 49.2707 223.948 49.3628 223.794 49.5469C223.64 49.731 223.547 50.13 223.547 50.8051V51.7258V52.585C223.547 53.2909 223.64 53.7512 223.794 53.9046C223.948 54.0888 224.381 54.1501 225.09 54.1501C225.8 54.1501 226.263 54.0274 226.386 53.7819C226.541 53.5364 226.602 52.8305 226.602 51.6644C226.602 50.4676 226.541 49.7924 226.386 49.5776C226.263 49.3628 225.769 49.2707 224.967 49.2707Z" fill="white"/>
<path d="M239.933 48.1965L237.31 52.5542V55.2548H235.952V52.5542L233.391 48.1965H234.934L236.014 50.0685C236.076 50.1606 236.168 50.3754 236.323 50.6516L236.477 50.9278L236.631 51.204H236.662L236.816 50.9278L236.971 50.6516C237.094 50.4061 237.187 50.1913 237.279 50.0685L238.359 48.1965H239.933Z" fill="white"/>
<path d="M242.895 49.3012V51.1118H246.228V52.0939H242.895V54.0886H246.444V55.2241H241.568V48.1658H246.413V49.3012H242.895V49.3012Z" fill="white"/>
<path d="M252.893 53.8738H249.838L249.406 55.2241H247.987L250.332 48.1658H252.338L254.745 55.2241H253.356L252.893 53.8738ZM252.585 52.8918L251.35 49.2092L250.147 52.8918H252.585Z" fill="white"/>
<path d="M256.535 55.2241V48.1658H260.022C260.886 48.1658 261.503 48.3192 261.811 48.6261C262.151 48.933 262.305 49.4547 262.305 50.2526C262.305 50.9584 262.213 51.4494 262.058 51.7256C261.904 52.0018 261.565 52.1552 261.04 52.278V52.3394C261.811 52.4008 262.213 52.8304 262.213 53.7204V55.2855H260.855V53.9965C260.855 53.26 260.485 52.9225 259.775 52.9225H257.831V55.2855H256.535V55.2241ZM257.892 51.7256H259.836C260.299 51.7256 260.608 51.6335 260.762 51.4801C260.916 51.3267 260.978 50.9891 260.978 50.4981C260.978 50.0071 260.917 49.6695 260.793 49.5161C260.67 49.3626 260.392 49.3012 259.929 49.3012H257.892V51.7256Z" fill="white"/>
<path d="M269.835 50.222H268.508C268.508 50.1606 268.508 50.0992 268.508 50.0685C268.477 49.6696 268.384 49.4241 268.23 49.332C268.076 49.24 267.736 49.1786 267.212 49.1786C266.564 49.1786 266.162 49.24 265.977 49.3627C265.792 49.4855 265.669 49.731 265.669 50.0992C265.669 50.5289 265.761 50.8051 265.916 50.8971C266.07 50.9892 266.594 51.0506 267.489 51.1119C268.539 51.1733 269.217 51.3268 269.526 51.5723C269.835 51.8178 269.989 52.3088 269.989 53.076C269.989 54.0273 269.804 54.6104 269.433 54.8866C269.063 55.1628 268.261 55.2855 267.026 55.2855C265.916 55.2855 265.175 55.1628 264.805 54.8866C264.434 54.6104 264.249 54.0887 264.249 53.2601V53.0146H265.545V53.1681C265.545 53.6591 265.638 53.9659 265.792 54.058C265.977 54.1808 266.44 54.2114 267.212 54.2114C267.798 54.2114 268.199 54.1501 268.353 54.0273C268.508 53.9046 268.6 53.5977 268.6 53.1374C268.6 52.7998 268.539 52.585 268.415 52.4622C268.292 52.3395 268.014 52.2781 267.582 52.2474L266.841 52.186C265.73 52.1247 264.99 51.9712 264.681 51.7257C264.373 51.4802 264.218 50.9585 264.218 50.1606C264.218 49.332 264.404 48.7796 264.774 48.5034C265.144 48.2272 265.916 48.1045 267.026 48.1045C268.106 48.1045 268.816 48.2272 269.187 48.4728C269.557 48.7183 269.742 49.2093 269.742 49.9458V50.222H269.835Z" fill="white"/>
<path d="M92.3077 12.7825H89.0368C89.0059 12.6291 89.0059 12.5064 89.0059 12.4143C88.9133 11.4323 88.6973 10.8185 88.3579 10.5423C87.9876 10.2968 87.1544 10.174 85.7967 10.174C84.2229 10.174 83.1737 10.3275 82.68 10.6037C82.1863 10.8799 81.9394 11.4936 81.9394 12.445C81.9394 13.5498 82.1245 14.2249 82.5257 14.4397C82.9268 14.6545 84.2229 14.8387 86.4447 14.9614C89.0676 15.1149 90.7648 15.4831 91.5363 16.0662C92.3077 16.68 92.7089 17.9075 92.7089 19.8102C92.7089 22.1425 92.246 23.6462 91.3511 24.3213C90.4562 24.9965 88.4505 25.334 85.3646 25.334C82.5874 25.334 80.7359 24.9965 79.841 24.3213C78.9153 23.6462 78.4833 22.2959 78.4833 20.2705V19.626H81.7542V19.9943C81.7542 21.2218 81.9702 21.9583 82.4023 22.2345C82.8343 22.5107 84.0069 22.6335 85.9201 22.6335C87.4321 22.6335 88.3887 22.48 88.7899 22.1425C89.191 21.8356 89.4071 21.0991 89.4071 19.9329C89.4071 19.0736 89.2528 18.5212 88.9442 18.2451C88.6356 17.9689 87.9567 17.7847 86.9076 17.7234L85.0561 17.6006C82.248 17.4472 80.4891 17.0482 79.6867 16.4344C78.9153 15.8207 78.5141 14.5318 78.5141 12.5064C78.5141 10.4502 78.977 9.09996 79.9028 8.42482C80.8285 7.74968 82.7108 7.41211 85.5189 7.41211C88.1727 7.41211 89.9625 7.71899 90.8882 8.36344C91.814 8.97721 92.2769 10.2047 92.2769 12.0153V12.7825H92.3077Z" fill="black"/>
<path d="M108.663 21.8662H101.041L99.9607 25.2419H96.412L102.275 7.68823H107.305L113.291 25.2419H109.804L108.663 21.8662ZM107.891 19.4111L104.836 10.266L101.843 19.4111H107.891Z" fill="black"/>
<path d="M134.121 7.68823V25.2419H128.443L123.413 15.6058C123.166 15.1148 122.765 14.2862 122.24 13.0894L121.685 11.8311L121.129 10.5729H121.006L121.068 11.7391L121.098 12.8745L121.129 15.1762V25.2419H117.766V7.68823H123.413L128.011 16.5878C128.412 17.3857 128.875 18.337 129.43 19.4418L130.109 20.8535L130.788 22.2958H130.911L130.88 21.1604L130.85 20.0249L130.819 17.754V7.68823H134.121Z" fill="black"/>
<path d="M160.381 21.8662H152.759L151.648 25.2419H148.099L153.962 7.68823H158.992L164.979 25.2419H161.492L160.381 21.8662ZM159.609 19.4111L156.554 10.266L153.561 19.4111H159.609Z" fill="black"/>
<path d="M185.839 7.68823V25.2419H180.161L175.131 15.6058C174.884 15.1148 174.483 14.2862 173.959 13.0894L173.403 11.8311L172.848 10.5729H172.724L172.786 11.7391L172.817 12.8745L172.848 15.1762V25.2419H169.484V7.68823H175.162L179.76 16.5878C180.161 17.3857 180.624 18.337 181.179 19.4418L181.858 20.8535L182.537 22.2958H182.661L182.63 21.1604L182.599 20.0249L182.568 17.754V7.68823H185.839Z" fill="black"/>
<path d="M198.923 10.665V25.2419H195.559V10.665H190.467V7.68823H204.199V10.665H198.923Z" fill="black"/>
<path d="M216.172 7.53491C219.381 7.53491 221.449 8.05661 222.375 9.1307C223.3 10.2048 223.763 12.5678 223.763 16.2504C223.763 20.2705 223.3 22.8176 222.375 23.861C221.449 24.9044 219.196 25.4261 215.648 25.4261C212.438 25.4261 210.371 24.9044 209.414 23.8917C208.488 22.8483 207.995 20.5774 207.995 17.0789C207.995 12.9053 208.458 10.2662 209.383 9.19208C210.278 8.05661 212.562 7.53491 216.172 7.53491ZM215.894 10.3889C213.642 10.3889 212.315 10.6651 211.945 11.2482C211.574 11.8313 211.389 13.826 211.389 17.2017C211.389 19.7181 211.605 21.2525 212.037 21.7436C212.469 22.2653 213.796 22.5108 215.956 22.5108C218.024 22.5108 219.289 22.2346 219.69 21.6515C220.091 21.0684 220.307 19.3192 220.307 16.3731C220.307 13.427 220.122 11.7085 219.721 11.1561C219.351 10.6344 218.085 10.3889 215.894 10.3889Z" fill="black"/>
<path d="M245.302 7.68823V25.2419H239.625L234.595 15.6058C234.348 15.1148 233.947 14.2862 233.422 13.0894L232.867 11.8311L232.311 10.5729H232.188L232.249 11.7391L232.28 12.8745L232.311 15.1762V25.2419H228.948V7.68823H234.626L239.223 16.5878C239.625 17.3857 240.087 18.337 240.643 19.4418L241.322 20.8535L242.001 22.2958H242.124L242.093 21.1604L242.062 20.0249L242.031 17.754V7.68823H245.302Z" fill="black"/>
<path d="M254.683 7.68823V25.2419H251.32V7.68823H254.683Z" fill="black"/>
<path d="M268.076 7.53491C271.285 7.53491 273.352 8.05661 274.278 9.1307C275.204 10.2048 275.667 12.5678 275.667 16.2504C275.667 20.2705 275.204 22.8176 274.278 23.861C273.352 24.9044 271.1 25.4261 267.551 25.4261C264.342 25.4261 262.274 24.9044 261.318 23.8917C260.392 22.8483 259.898 20.5774 259.898 17.0789C259.898 12.9053 260.361 10.2662 261.287 9.19208C262.213 8.05661 264.496 7.53491 268.076 7.53491ZM267.829 10.3889C265.576 10.3889 264.249 10.6651 263.879 11.2482C263.509 11.8313 263.324 13.826 263.324 17.2017C263.324 19.7181 263.54 21.2525 263.972 21.7436C264.404 22.2653 265.731 22.5108 267.891 22.5108C269.958 22.5108 271.223 22.2346 271.624 21.6515C272.026 21.0684 272.242 19.3192 272.242 16.3731C272.242 13.427 272.056 11.7085 271.655 11.1561C271.285 10.6344 269.989 10.3889 267.829 10.3889Z" fill="black"/>
<path d="M87.216 30.7346V38.1612H85.7966V34.1103C85.7966 33.7728 85.7966 33.4352 85.8274 33.0055L85.8583 32.4532L85.8891 31.9008H85.8583L85.6731 32.4225L85.5188 32.9442C85.3645 33.4045 85.2411 33.7421 85.1485 33.9876L83.5131 38.1919H82.217L80.5507 34.0183C80.4581 33.8034 80.3347 33.4352 80.1804 32.9749L80.0261 32.4532L79.8718 31.9315H79.8409L79.8718 32.4838L79.9027 33.0362C79.9335 33.4659 79.9335 33.8034 79.9335 34.1103V38.1612H78.514V30.7346H80.8284L82.1553 34.1717C82.2479 34.4172 82.3713 34.7548 82.5256 35.2151L82.6799 35.7368L82.8342 36.2585H82.8959L83.0502 35.7368L83.2045 35.2151C83.3279 34.7855 83.4513 34.4479 83.5439 34.2024L84.8708 30.7346H87.216V30.7346Z" fill="#D2232A"/>
<path d="M94.4369 36.7195H91.2276L90.7647 38.1619H89.2527L91.7213 30.7354H93.8506L96.3809 38.1619H94.8997L94.4369 36.7195ZM94.1283 35.6761L92.8322 31.8094L91.567 35.6761H94.1283Z" fill="#D2232A"/>
<path d="M105.361 30.7354V38.1619H102.954L100.824 34.0804C100.732 33.8655 100.547 33.528 100.331 33.0063L100.084 32.4846L99.837 31.9629H99.7752L99.8061 32.4539L99.837 32.9449V33.9269V38.1926H98.4175V30.7354H100.824L102.768 34.51C102.954 34.8476 103.139 35.2465 103.355 35.7375L103.633 36.3513L103.91 36.9651H103.972L103.941 36.474L103.91 35.983V35.0317V30.7354H105.361Z" fill="#D2232A"/>
<path d="M112.89 30.7354H114.31V35.6762C114.31 36.7196 114.124 37.3947 113.723 37.7323C113.322 38.0698 112.52 38.2233 111.285 38.2233C109.989 38.2233 109.125 38.0698 108.724 37.7323C108.323 37.4254 108.107 36.7502 108.107 35.7375V30.7354H109.527V35.7682C109.527 36.3206 109.619 36.6582 109.835 36.8116C110.02 36.9651 110.483 37.0264 111.224 37.0264C111.964 37.0264 112.427 36.9651 112.643 36.8116C112.828 36.6582 112.921 36.2899 112.921 35.7068V30.7354H112.89Z" fill="#D2232A"/>
<path d="M118.414 31.9015V33.8962H121.777V35.0931H118.414V38.1619H116.994V30.7354H121.932V31.9322H118.414V31.9015Z" fill="#D2232A"/>
<path d="M128.72 36.7195H125.511L125.048 38.1619H123.536L126.036 30.7354H128.165L130.695 38.1619H129.214L128.72 36.7195ZM128.412 35.6761L127.116 31.8094L125.85 35.6761H128.412Z" fill="#D2232A"/>
<path d="M137.33 35.4918H138.749V35.7373C138.749 36.7807 138.564 37.4252 138.194 37.732C137.823 38.0389 136.959 38.1924 135.663 38.1924C134.182 38.1924 133.287 37.9469 132.948 37.4865C132.608 36.9955 132.423 35.7373 132.423 33.6505C132.423 32.423 132.67 31.6251 133.102 31.2261C133.565 30.8272 134.522 30.6431 136.003 30.6431C137.083 30.6431 137.793 30.7965 138.132 31.1341C138.502 31.441 138.657 32.0854 138.657 33.0367V33.1902H137.237V33.0061C137.237 32.5151 137.144 32.2082 136.959 32.0854C136.774 31.9627 136.342 31.8706 135.694 31.8706C134.83 31.8706 134.275 31.9627 134.12 32.1775C133.935 32.3923 133.843 33.0368 133.843 34.0802C133.843 35.4918 133.935 36.3511 134.09 36.5966C134.244 36.8728 134.768 36.9955 135.632 36.9955C136.342 36.9955 136.805 36.9342 136.99 36.7807C137.175 36.6273 137.299 36.3204 137.299 35.8294L137.33 35.4918Z" fill="#D2232A"/>
<path d="M144.026 31.9936V38.1619H142.606V31.9936H140.446V30.7354H146.248V31.9936H144.026Z" fill="#D2232A"/>
<path d="M153.16 30.7354H154.579V35.6762C154.579 36.7196 154.394 37.3947 153.993 37.7323C153.592 38.0698 152.79 38.2233 151.555 38.2233C150.259 38.2233 149.395 38.0698 148.994 37.7323C148.593 37.4254 148.377 36.7502 148.377 35.7375V30.7354H149.796V35.7682C149.796 36.3206 149.889 36.6582 150.074 36.8116C150.259 36.9651 150.753 37.0264 151.463 37.0264C152.203 37.0264 152.666 36.9651 152.882 36.8116C153.067 36.6582 153.16 36.2899 153.16 35.7068V30.7354V30.7354Z" fill="#D2232A"/>
<path d="M157.295 38.1619V30.7354H160.967C161.893 30.7354 162.51 30.8888 162.849 31.1957C163.189 31.5026 163.374 32.0856 163.374 32.9142C163.374 33.6507 163.281 34.1724 163.127 34.4486C162.942 34.7248 162.602 34.9089 162.078 35.0317V35.0931C162.911 35.1545 163.312 35.6148 163.312 36.5354V38.1619H161.893V36.8116C161.893 36.0444 161.522 35.6761 160.751 35.6761H158.714V38.1926H157.295V38.1619ZM158.714 34.4486H160.751C161.245 34.4486 161.553 34.3566 161.708 34.2031C161.862 34.019 161.954 33.6814 161.954 33.1597C161.954 32.638 161.893 32.3004 161.738 32.147C161.615 31.9936 161.306 31.9015 160.844 31.9015H158.714V34.4486Z" fill="#D2232A"/>
<path d="M167.169 31.9015V33.8042H170.687V34.8476H167.169V36.9344H170.903V38.1312H165.75V30.7354H170.872V31.9322H167.169V31.9015Z" fill="#D2232A"/>
<path d="M173.341 38.1619V30.7354H177.013C177.939 30.7354 178.556 30.8888 178.896 31.1957C179.235 31.5026 179.42 32.0856 179.42 32.9142C179.42 33.6507 179.328 34.1724 179.173 34.4486C178.988 34.7248 178.649 34.9089 178.093 35.0317V35.0931C178.926 35.1545 179.328 35.6148 179.328 36.5354V38.1619H177.908V36.8116C177.908 36.0444 177.538 35.6761 176.766 35.6761H174.73V38.1926H173.341V38.1619ZM174.761 34.4486H176.797C177.291 34.4486 177.599 34.3566 177.754 34.2031C177.908 34.019 178.001 33.6814 178.001 33.1597C178.001 32.638 177.939 32.3004 177.785 32.147C177.661 31.9936 177.353 31.9015 176.89 31.9015H174.761V34.4486Z" fill="#D2232A"/>
<path d="M187.505 32.8833H186.116C186.116 32.8219 186.116 32.7606 186.116 32.7299C186.086 32.3002 185.993 32.0547 185.839 31.932C185.684 31.8399 185.314 31.7785 184.759 31.7785C184.08 31.7785 183.648 31.8399 183.432 31.9627C183.216 32.0854 183.123 32.3309 183.123 32.7299C183.123 33.1902 183.216 33.4664 183.37 33.5891C183.524 33.6812 184.08 33.7426 185.036 33.804C186.147 33.8653 186.857 34.0188 187.196 34.2643C187.536 34.5098 187.69 35.0622 187.69 35.8601C187.69 36.8421 187.505 37.4865 187.104 37.7627C186.734 38.0389 185.87 38.1924 184.573 38.1924C183.401 38.1924 182.629 38.0389 182.228 37.7627C181.858 37.4865 181.642 36.9035 181.642 36.0442V35.768H183.031V35.9214C183.031 36.4431 183.123 36.75 183.308 36.8728C183.493 36.9955 183.987 37.0569 184.79 37.0569C185.438 37.0569 185.839 36.9955 185.993 36.8421C186.178 36.7193 186.24 36.3818 186.24 35.9214C186.24 35.5532 186.178 35.3384 186.055 35.2156C185.931 35.0929 185.623 35.0315 185.191 35.0008L184.419 34.9394C183.247 34.878 182.475 34.6939 182.167 34.4484C181.827 34.2029 181.673 33.6505 181.673 32.7912C181.673 31.932 181.858 31.3489 182.259 31.0727C182.66 30.7965 183.463 30.6431 184.635 30.6431C185.746 30.6431 186.518 30.7658 186.919 31.042C187.32 31.3182 187.505 31.8092 187.505 32.6071V32.8833V32.8833Z" fill="#D2232A"/>
<path d="M198.799 36.7195H195.59L195.127 38.1619H193.615L196.114 30.7354H198.244L200.774 38.1619H199.293L198.799 36.7195ZM198.46 35.6761L197.164 31.8094L195.899 35.6761H198.46Z" fill="#D2232A"/>
<path d="M208.334 32.8833H206.946C206.946 32.8219 206.946 32.7606 206.946 32.7299C206.915 32.3002 206.822 32.0547 206.668 31.932C206.514 31.8399 206.143 31.7785 205.588 31.7785C204.909 31.7785 204.477 31.8399 204.261 31.9627C204.045 32.0854 203.952 32.3309 203.952 32.7299C203.952 33.1902 204.045 33.4664 204.199 33.5891C204.354 33.6812 204.909 33.7426 205.866 33.804C206.976 33.8653 207.686 34.0188 208.026 34.2643C208.365 34.5098 208.519 35.0622 208.519 35.8601C208.519 36.8421 208.334 37.4865 207.933 37.7627C207.563 38.0389 206.699 38.1924 205.403 38.1924C204.23 38.1924 203.459 38.0389 203.057 37.7627C202.687 37.4865 202.471 36.9035 202.471 36.0442V35.768H203.86V35.9214C203.86 36.4431 203.952 36.75 204.138 36.8728C204.323 36.9955 204.816 37.0569 205.619 37.0569C206.267 37.0569 206.668 36.9955 206.822 36.8421C207.007 36.7193 207.1 36.3818 207.1 35.9214C207.1 35.5532 207.038 35.3384 206.884 35.2156C206.76 35.0929 206.452 35.0315 206.02 35.0008L205.248 34.9394C204.076 34.878 203.304 34.6939 202.996 34.4484C202.656 34.2029 202.502 33.6505 202.502 32.7912C202.502 31.932 202.687 31.3489 203.088 31.0727C203.49 30.7965 204.292 30.6431 205.464 30.6431C206.575 30.6431 207.347 30.7658 207.748 31.042C208.149 31.3182 208.334 31.8092 208.334 32.6071V32.8833V32.8833Z" fill="#D2232A"/>
<path d="M216.419 32.8833H215.03C215.03 32.8219 215.03 32.7606 215.03 32.7299C215 32.3002 214.907 32.0547 214.753 31.932C214.598 31.8399 214.228 31.7785 213.673 31.7785C212.994 31.7785 212.562 31.8399 212.346 31.9627C212.13 32.0854 212.037 32.3309 212.037 32.7299C212.037 33.1902 212.13 33.4664 212.284 33.5891C212.438 33.6812 212.994 33.7426 213.95 33.804C215.061 33.8653 215.771 34.0188 216.11 34.2643C216.45 34.5098 216.604 35.0622 216.604 35.8601C216.604 36.8421 216.419 37.4865 216.018 37.7627C215.648 38.0389 214.784 38.1924 213.488 38.1924C212.315 38.1924 211.543 38.0389 211.142 37.7627C210.772 37.4865 210.556 36.9035 210.556 36.0442V35.768H211.945V35.9214C211.945 36.4431 212.037 36.75 212.222 36.8728C212.408 36.9955 212.901 37.0569 213.704 37.0569C214.352 37.0569 214.753 36.9955 214.907 36.8421C215.092 36.7193 215.185 36.3818 215.185 35.9214C215.185 35.5532 215.123 35.3384 214.969 35.2156C214.845 35.0929 214.537 35.0315 214.105 35.0008L213.333 34.9394C212.161 34.878 211.389 34.6939 211.081 34.4484C210.741 34.2029 210.587 33.6505 210.587 32.7912C210.587 31.932 210.772 31.3489 211.173 31.0727C211.574 30.7965 212.346 30.6431 213.549 30.6431C214.66 30.6431 215.432 30.7658 215.833 31.042C216.234 31.3182 216.419 31.8092 216.419 32.6071V32.8833V32.8833Z" fill="#D2232A"/>
<path d="M222.097 30.6431C223.455 30.6431 224.319 30.8579 224.72 31.3182C225.121 31.7785 225.306 32.7606 225.306 34.3257C225.306 36.0135 225.121 37.0876 224.72 37.5479C224.319 37.9776 223.362 38.2231 221.881 38.2231C220.523 38.2231 219.659 38.0082 219.258 37.5786C218.857 37.149 218.672 36.1669 218.672 34.6939C218.672 32.914 218.857 31.8092 219.258 31.3489C219.597 30.8886 220.554 30.6431 222.097 30.6431ZM221.974 31.8706C221.017 31.8706 220.462 31.9933 220.307 32.2389C220.153 32.4844 220.06 33.3129 220.06 34.7553C220.06 35.8294 220.153 36.4738 220.338 36.6886C220.523 36.9035 221.079 37.0262 222.004 37.0262C222.899 37.0262 223.424 36.9035 223.578 36.658C223.763 36.4125 223.856 35.6759 223.856 34.4177C223.856 33.1595 223.763 32.423 223.609 32.2082C223.455 31.9933 222.899 31.8706 221.974 31.8706Z" fill="#D2232A"/>
<path d="M232.249 35.4918H233.669V35.7373C233.669 36.7807 233.484 37.4252 233.113 37.732C232.743 38.0389 231.91 38.1924 230.583 38.1924C229.102 38.1924 228.207 37.9469 227.867 37.4865C227.528 36.9955 227.343 35.7373 227.343 33.6505C227.343 32.423 227.559 31.6251 228.022 31.2261C228.485 30.8272 229.441 30.6431 230.922 30.6431C232.003 30.6431 232.712 30.7965 233.052 31.1341C233.422 31.441 233.576 32.0854 233.576 33.0367V33.1902H232.157V33.0061C232.157 32.5151 232.064 32.2082 231.879 32.0854C231.694 31.9627 231.262 31.8706 230.614 31.8706C229.75 31.8706 229.194 31.9627 229.04 32.1775C228.855 32.3923 228.762 33.0368 228.762 34.0802C228.762 35.4918 228.855 36.3511 229.009 36.5966C229.164 36.8728 229.688 36.9955 230.552 36.9955C231.262 36.9955 231.725 36.9342 231.91 36.7807C232.126 36.6273 232.219 36.3204 232.219 35.8294L232.249 35.4918Z" fill="#D2232A"/>
<path d="M237.372 30.7354V38.1619H235.952V30.7354H237.372Z" fill="#D2232A"/>
<path d="M244.623 36.7195H241.414L240.951 38.1619H239.439L241.939 30.7354H244.068L246.598 38.1619H245.117L244.623 36.7195ZM244.284 35.6761L242.988 31.8094L241.723 35.6761H244.284Z" fill="#D2232A"/>
<path d="M251.597 31.9936V38.1619H250.178V31.9936H248.018V30.7354H253.819V31.9936H251.597Z" fill="#D2232A"/>
<path d="M257.337 30.7354V38.1619H255.917V30.7354H257.337Z" fill="#D2232A"/>
<path d="M263.169 30.6431C264.527 30.6431 265.391 30.8579 265.792 31.3182C266.193 31.7785 266.378 32.7606 266.378 34.3257C266.378 36.0135 266.193 37.0876 265.792 37.5479C265.391 37.9776 264.465 38.2231 262.953 38.2231C261.595 38.2231 260.731 38.0082 260.33 37.5786C259.929 37.149 259.744 36.1669 259.744 34.6939C259.744 32.914 259.929 31.8092 260.33 31.3489C260.67 30.8886 261.657 30.6431 263.169 30.6431ZM263.046 31.8706C262.089 31.8706 261.534 31.9933 261.379 32.2389C261.225 32.4844 261.133 33.3129 261.133 34.7553C261.133 35.8294 261.225 36.4738 261.41 36.6886C261.595 36.9035 262.151 37.0262 263.077 37.0262C263.971 37.0262 264.496 36.9035 264.65 36.658C264.836 36.4125 264.897 35.6759 264.897 34.4177C264.897 33.1595 264.805 32.423 264.65 32.2082C264.527 31.9933 263.971 31.8706 263.046 31.8706Z" fill="#D2232A"/>
<path d="M275.667 30.7354V38.1619H273.26L271.131 34.0804C271.038 33.8655 270.853 33.528 270.637 33.0063L270.39 32.4846L270.143 31.9629H270.081L270.112 32.4539L270.143 32.9449V33.9269V38.1926H268.724V30.7354H271.131L273.075 34.51C273.26 34.8476 273.445 35.2465 273.661 35.7375L273.939 36.3513L274.216 36.9651H274.278L274.247 36.474L274.216 35.983V35.0317V30.7354H275.667Z" fill="#D2232A"/>
</svg>
