<?xml version="1.0" encoding="UTF-8"?> <svg xmlns="http://www.w3.org/2000/svg" width="242" height="60" viewBox="0 0 242 60" fill="none"><path d="M196.341 43.021C195.802 43.021 195.453 43.1018 195.318 43.2633C195.183 43.4248 195.103 43.7748 195.103 44.3671V45.1747V45.9285C195.103 46.5477 195.183 46.9516 195.318 47.0862C195.453 47.2477 195.829 47.3016 196.449 47.3016C197.068 47.3016 197.472 47.1939 197.579 46.9785C197.714 46.7631 197.768 46.1439 197.768 45.1209C197.768 44.0709 197.714 43.4787 197.579 43.2902C197.472 43.1018 197.068 43.021 196.341 43.021Z" fill="white"></path><path d="M218.336 46.1979H220.436L219.386 42.9673L218.336 46.1979Z" fill="white"></path><path d="M172.946 43.0483H171.169V45.1752H172.865C173.269 45.1752 173.538 45.0944 173.673 44.9598C173.807 44.8252 173.861 44.529 173.861 44.0983C173.861 43.6675 173.807 43.3714 173.7 43.2368C173.592 43.1022 173.323 43.0483 172.946 43.0483Z" fill="white"></path><path d="M152.674 43.021C151.893 43.021 151.435 43.1287 151.301 43.3171C151.166 43.5325 151.085 44.2325 151.085 45.417C151.085 46.3054 151.166 46.8439 151.328 47.0323C151.489 47.2208 151.947 47.3016 152.701 47.3016C153.428 47.3016 153.858 47.1939 154.02 47.0054C154.155 46.79 154.235 46.1708 154.235 45.1478C154.235 44.1248 154.155 43.5056 154.02 43.3171C153.885 43.1018 153.428 43.021 152.674 43.021Z" fill="white"></path><path d="M189.503 43.021C188.965 43.021 188.615 43.1018 188.48 43.2633C188.345 43.4248 188.265 43.7748 188.265 44.3671V45.1747V45.9285C188.265 46.5477 188.345 46.9516 188.48 47.0862C188.615 47.2477 188.992 47.3016 189.611 47.3016C190.23 47.3016 190.634 47.1939 190.741 46.9785C190.876 46.7631 190.93 46.1439 190.93 45.1209C190.93 44.0709 190.876 43.4787 190.741 43.2902C190.634 43.1018 190.203 43.021 189.503 43.021Z" fill="white"></path><path d="M226.843 43.0483H225.066V45.1752H226.762C227.166 45.1752 227.436 45.0944 227.57 44.9598C227.705 44.8252 227.759 44.529 227.759 44.0983C227.759 43.6675 227.705 43.3714 227.597 43.2368C227.462 43.1022 227.22 43.0483 226.843 43.0483Z" fill="white"></path><path d="M67.0894 37.1523V53.7092H242V37.1523H67.0894ZM77.9927 47.948C77.6696 48.1903 76.9696 48.298 75.8928 48.298C74.9236 48.298 74.2775 48.1903 73.9544 47.948C73.6313 47.7057 73.4698 47.248 73.4698 46.5211V46.3057H74.6005V46.4404C74.6005 46.8711 74.6813 47.1403 74.8159 47.2211C74.9774 47.3288 75.3813 47.3557 76.0543 47.3557C76.5927 47.3557 76.9158 47.3019 77.0504 47.1942C77.185 47.0865 77.2658 46.8173 77.2658 46.4134C77.2658 46.1173 77.2119 45.9288 77.1043 45.8212C76.9966 45.7135 76.7543 45.6596 76.3774 45.6327L75.7312 45.5789C74.7621 45.525 74.1159 45.3904 73.8467 45.175C73.5775 44.9597 73.4429 44.502 73.4429 43.802C73.4429 43.0751 73.6044 42.5905 73.9275 42.3482C74.2505 42.1059 74.9236 41.9983 75.8928 41.9983C76.8081 41.9983 77.4542 42.1059 77.7773 42.3213C78.1004 42.5367 78.2619 42.9674 78.2619 43.6136V43.8559H77.1043C77.1043 43.802 77.1043 43.7482 77.1043 43.7213C77.0773 43.3713 76.9966 43.1559 76.862 43.0751C76.7273 42.9944 76.4312 42.9405 75.9735 42.9405C75.4082 42.9405 75.0582 42.9944 74.8697 43.1021C74.7082 43.2097 74.6005 43.4251 74.6005 43.7482C74.6005 44.1251 74.6813 44.3674 74.8159 44.4481C74.9505 44.5289 75.4082 44.5828 76.1889 44.6366C77.1043 44.6904 77.6965 44.825 77.9658 45.0404C78.235 45.2558 78.3696 45.6865 78.3696 46.3596C78.4773 47.1672 78.3157 47.7057 77.9927 47.948ZM84.4539 48.2441H80.2003V42.0521H84.427V43.0482H81.3848V44.6366H84.2924V45.4981H81.3848V47.248H84.4808V48.2441H84.4539ZM91.319 46.8711V48.2441H90.1344V47.1134C90.1344 46.4673 89.8113 46.1711 89.1921 46.1711H87.4961V48.2441H86.3115V42.0521H89.3537C90.1075 42.0521 90.6459 42.1867 90.9151 42.4559C91.2113 42.7251 91.3459 43.1828 91.3459 43.8828C91.3459 44.502 91.2651 44.9327 91.1305 45.175C90.9959 45.4173 90.6997 45.5519 90.2421 45.6596V45.7135C90.9959 45.7135 91.319 46.1173 91.319 46.8711ZM96.5687 48.2441H94.7649L92.7996 42.0521H94.0111L95.1688 45.5519C95.2764 45.875 95.438 46.4404 95.6533 47.248H95.6803L95.788 46.8173C95.9226 46.3057 96.0572 45.875 96.1649 45.5519L97.3225 42.0521H98.5609L96.5687 48.2441ZM101.28 48.2441H100.095V42.0521H101.28V48.2441ZM109.141 48.2441H107.149L105.372 44.852C105.291 44.6904 105.157 44.3943 104.968 43.9636L104.78 43.5059L104.591 43.0751H104.538L104.564 43.479L104.591 43.8828V44.6904V48.2441H103.407V42.0521H105.399L107.014 45.175C107.149 45.4442 107.31 45.7942 107.499 46.1981L107.741 46.7096L107.984 47.2211H108.01V46.8173V46.4134V45.6058V42.0521H109.195V48.2441H109.141ZM115.925 47.9211C115.575 48.1903 114.849 48.298 113.664 48.298C112.587 48.298 111.887 48.1364 111.537 47.7864C111.187 47.4365 111.026 46.7365 111.026 45.6865C111.026 44.3405 111.106 43.479 111.241 43.129C111.403 42.6982 111.672 42.4021 112.022 42.2406C112.372 42.079 112.964 42.0252 113.799 42.0252C114.902 42.0252 115.602 42.1329 115.925 42.3752C116.249 42.6175 116.41 43.129 116.41 43.9366H115.225C115.199 43.5328 115.118 43.2905 114.956 43.1828C114.795 43.0751 114.418 43.0482 113.799 43.0482C113.126 43.0482 112.695 43.129 112.506 43.2905C112.318 43.452 112.237 43.8559 112.237 44.4751V45.0943V45.9019C112.237 46.5211 112.318 46.898 112.506 47.0596C112.695 47.2211 113.099 47.3018 113.772 47.3018C114.418 47.3018 114.822 47.2211 114.983 47.0865C115.145 46.9519 115.252 46.6019 115.252 46.0904V45.8481H113.691V44.9597H116.41L116.437 46.1981C116.437 47.0865 116.249 47.6518 115.925 47.9211ZM128.848 48.2441H127.663V44.8789C127.663 44.6097 127.663 44.3135 127.69 43.9636L127.717 43.5059L127.744 43.0482H127.717L127.583 43.479L127.448 43.9097C127.313 44.2866 127.233 44.5828 127.152 44.7712L125.806 48.271H124.729L123.356 44.825C123.275 44.6366 123.167 44.3405 123.06 43.9636L122.925 43.5328L122.79 43.1021H122.764L122.79 43.5597L122.817 44.0174C122.844 44.3674 122.844 44.6635 122.844 44.9058V48.271H121.66V42.079H123.571L124.675 44.9327C124.756 45.1212 124.837 45.4173 124.971 45.7942L125.106 46.225L125.24 46.6557H125.267L125.402 46.225L125.537 45.7942C125.644 45.4443 125.752 45.1481 125.833 44.9327L126.91 42.0521H128.848V48.2441ZM135.067 43.0482H132.132V44.7174H134.905V45.7135H132.132V48.2441H130.975V42.0521H135.067V43.0482ZM141.474 47.9211C141.151 48.1903 140.397 48.298 139.213 48.298C138.136 48.298 137.436 48.1364 137.086 47.7864C136.736 47.4365 136.574 46.7365 136.574 45.6865C136.574 44.3405 136.655 43.479 136.79 43.129C136.951 42.6982 137.221 42.4021 137.571 42.2406C137.921 42.079 138.513 42.0252 139.347 42.0252C140.451 42.0252 141.151 42.1329 141.474 42.3752C141.797 42.6175 141.959 43.129 141.959 43.9366H140.774C140.747 43.5328 140.667 43.2905 140.505 43.1828C140.343 43.0751 139.967 43.0482 139.32 43.0482C138.647 43.0482 138.217 43.129 138.028 43.2905C137.84 43.452 137.759 43.8559 137.759 44.4751V45.0943V45.9019C137.759 46.5211 137.84 46.898 138.028 47.0596C138.217 47.2211 138.62 47.3018 139.294 47.3018C139.94 47.3018 140.343 47.2211 140.505 47.0865C140.667 46.9519 140.774 46.6019 140.774 46.0904V45.8481H139.213V44.9597H141.932L141.959 46.1981C141.986 47.0865 141.824 47.6518 141.474 47.9211ZM144.812 48.2441H143.789V47.1403H144.812V48.2441ZM154.908 47.7326C154.585 48.1095 153.804 48.271 152.539 48.271C151.408 48.271 150.681 48.0826 150.358 47.7326C150.035 47.3557 149.874 46.575 149.874 45.3366C149.874 43.8559 150.035 42.9405 150.358 42.5636C150.681 42.1867 151.462 41.9983 152.727 41.9983C153.858 41.9983 154.585 42.1867 154.908 42.5636C155.231 42.9405 155.393 43.7751 155.393 45.0673C155.42 46.4942 155.258 47.3826 154.908 47.7326ZM160.427 48.2441H158.623L156.658 42.0521H157.87L159.027 45.5519C159.135 45.875 159.296 46.4404 159.512 47.248H159.539L159.646 46.8173C159.781 46.3057 159.916 45.875 160.023 45.5519L161.181 42.0521H162.419L160.427 48.2441ZM168.1 48.2441H163.846V42.0521H168.073V43.0482H165.031V44.6366H167.938V45.4981H165.031V47.248H168.1V48.2441ZM174.992 46.8711V48.2441H173.807V47.1134C173.807 46.4673 173.484 46.1711 172.865 46.1711H171.169V48.2441H170.011V42.0521H173.053C173.807 42.0521 174.346 42.1867 174.615 42.4559C174.911 42.7251 175.046 43.1828 175.046 43.8828C175.046 44.502 174.965 44.9327 174.83 45.175C174.696 45.4173 174.4 45.5519 173.942 45.6596V45.7135C174.642 45.7135 174.992 46.1173 174.992 46.8711ZM183.93 48.2441H182.745V43.0751L181.13 44.6635L180.43 43.9097L182.422 42.0521H183.903V48.2441H183.93ZM191.683 47.7864C191.414 48.1095 190.714 48.298 189.583 48.298C188.453 48.298 187.753 48.1364 187.483 47.7864C187.214 47.4634 187.08 46.575 187.08 45.1481C187.08 43.7213 187.214 42.8328 187.483 42.5098C187.753 42.1867 188.453 41.9983 189.583 41.9983C190.714 41.9983 191.414 42.1598 191.683 42.5098C191.953 42.8328 192.087 43.7213 192.087 45.1481C192.087 46.575 191.953 47.4634 191.683 47.7864ZM198.548 47.7864C198.279 48.1095 197.579 48.298 196.448 48.298C195.318 48.298 194.618 48.1364 194.349 47.7864C194.079 47.4634 193.945 46.575 193.945 45.1481C193.945 43.7213 194.079 42.8328 194.349 42.5098C194.618 42.1867 195.318 41.9983 196.448 41.9983C197.579 41.9983 198.279 42.1598 198.548 42.5098C198.818 42.8328 198.952 43.7213 198.952 45.1481C198.925 46.575 198.791 47.4634 198.548 47.7864ZM207.109 45.875V48.2441H205.925V45.875L203.69 42.0521H205.036L205.979 43.6943C206.033 43.7751 206.113 43.9636 206.248 44.2058L206.383 44.4481L206.517 44.6904H206.544L206.679 44.4481L206.813 44.2058C206.921 43.9905 207.002 43.802 207.083 43.6943L208.025 42.0521H209.398L207.109 45.875ZM215.078 48.2441H210.825V42.0521H215.051V43.0482H211.982V44.6366H214.89V45.4981H211.982V47.248H215.078V48.2441ZM221.109 48.2441L220.705 47.0596H218.04L217.663 48.2441H216.424L218.47 42.0521H220.22L222.32 48.2441H221.109ZM228.862 46.8711V48.2441H227.678V47.1134C227.678 46.4673 227.355 46.1711 226.735 46.1711H225.039V48.2441H223.855V42.0521H226.897C227.651 42.0521 228.189 42.1867 228.458 42.4559C228.755 42.7251 228.889 43.1828 228.889 43.8828C228.889 44.502 228.808 44.9327 228.674 45.175C228.539 45.4173 228.243 45.5519 227.785 45.6596V45.7135C228.512 45.7135 228.862 46.1173 228.862 46.8711ZM235.162 47.948C234.839 48.1903 234.139 48.298 233.062 48.298C232.093 48.298 231.447 48.1903 231.124 47.948C230.801 47.7057 230.639 47.248 230.639 46.5211V46.3057H231.77V46.4404C231.77 46.8711 231.851 47.1403 231.985 47.2211C232.147 47.3288 232.551 47.3557 233.224 47.3557C233.735 47.3557 234.085 47.3019 234.22 47.1942C234.354 47.0865 234.435 46.8173 234.435 46.4134C234.435 46.1173 234.381 45.9288 234.274 45.8212C234.166 45.7135 233.924 45.6596 233.547 45.6327L232.901 45.5789C231.931 45.525 231.285 45.3904 231.016 45.175C230.747 44.9597 230.612 44.502 230.612 43.802C230.612 43.0751 230.774 42.5905 231.097 42.3482C231.42 42.1059 232.093 41.9983 233.062 41.9983C234.004 41.9983 234.624 42.1059 234.947 42.3213C235.27 42.5367 235.431 42.9674 235.431 43.6136V43.8559H234.354C234.354 43.802 234.354 43.7482 234.354 43.7213C234.327 43.3713 234.247 43.1559 234.112 43.0751C233.977 42.9944 233.681 42.9405 233.224 42.9405C232.658 42.9405 232.308 42.9944 232.147 43.1021C231.985 43.2097 231.877 43.4251 231.877 43.7482C231.877 44.1251 231.958 44.3674 232.093 44.4481C232.227 44.5289 232.685 44.5828 233.466 44.6366C234.381 44.6904 234.973 44.825 235.243 45.0404C235.512 45.2558 235.647 45.6865 235.647 46.3596C235.647 47.1672 235.485 47.7057 235.162 47.948Z" fill="white"></path><path d="M89.2998 43.0483H87.5229V45.1752H89.219C89.6228 45.1752 89.8921 45.0944 90.0267 44.9598C90.1613 44.8252 90.2151 44.529 90.2151 44.0983C90.2151 43.6675 90.1613 43.3714 90.0536 43.2368C89.919 43.1022 89.6767 43.0483 89.2998 43.0483Z" fill="white"></path><path d="M80.6039 11.0111H77.7502C77.7233 10.8765 77.7233 10.7688 77.7233 10.6881C77.6425 9.82656 77.4541 9.28812 77.1579 9.04582C76.8349 8.83045 76.108 8.72276 74.9234 8.72276C73.5504 8.72276 72.6351 8.85737 72.2043 9.09967C71.7736 9.34196 71.5582 9.8804 71.5582 10.715C71.5582 11.6842 71.7197 12.2764 72.0697 12.4649C72.4197 12.6533 73.5504 12.8149 75.4888 12.9226C77.7771 13.0572 79.2578 13.3802 79.9309 13.8917C80.6039 14.4302 80.9539 15.507 80.9539 17.1762C80.9539 19.2223 80.5501 20.5414 79.7693 21.1337C78.9886 21.726 77.2387 22.0221 74.5465 22.0221C72.1236 22.0221 70.5083 21.726 69.7275 21.1337C68.9199 20.5414 68.543 19.3569 68.543 17.58V17.0147H71.3967V17.3377C71.3967 18.4146 71.5851 19.0607 71.962 19.303C72.3389 19.5453 73.362 19.653 75.0311 19.653C76.3503 19.653 77.1849 19.5184 77.5348 19.2223C77.8848 18.953 78.0733 18.3069 78.0733 17.2839C78.0733 16.5301 77.9387 16.0455 77.6694 15.8032C77.4002 15.5609 76.8079 15.3994 75.8926 15.3455L74.2773 15.2378C71.8274 15.1032 70.2929 14.7532 69.5929 14.2148C68.9199 13.6764 68.5699 12.5457 68.5699 10.7688C68.5699 8.96506 68.9737 7.7805 69.7814 7.18822C70.589 6.59594 72.2312 6.2998 74.6811 6.2998C76.9964 6.2998 78.5579 6.56902 79.3655 7.13438C80.1732 7.67281 80.577 8.74969 80.577 10.3381V11.0111H80.6039Z" fill="white"></path><path d="M94.8994 18.9798H88.2497L87.2806 21.9412H84.1846L89.2997 6.54199H93.6879L98.8838 21.9412H95.8417L94.8994 18.9798ZM94.1995 16.8261L91.5342 8.80342L88.9228 16.8261H94.1995Z" fill="white"></path><path d="M117.083 6.54199V21.9412H112.129L107.741 13.4878C107.526 13.0571 107.176 12.3302 106.718 11.2802L106.234 10.1764L105.749 9.07264H105.641L105.695 10.0957L105.722 11.0918L105.749 13.1109V21.9412H102.814V6.54199H107.768L111.779 14.3493C112.129 15.0493 112.533 15.8838 113.018 16.853L113.61 18.0914L114.202 19.3568H114.31L114.283 18.3606L114.256 17.3645L114.229 15.3723V6.54199H117.083Z" fill="white"></path><path d="M139.993 18.9798H133.343L132.374 21.9412H129.278L134.393 6.54199H138.782L143.978 21.9412H140.935L139.993 18.9798ZM139.32 16.8261L136.655 8.80342L134.043 16.8261H139.32Z" fill="white"></path><path d="M162.204 6.54199V21.9412H157.25L152.862 13.4878C152.646 13.0571 152.296 12.3302 151.839 11.2802L151.354 10.1764L150.87 9.07264H150.762L150.816 10.0957L150.843 11.0918L150.87 13.1109V21.9412H147.935V6.54199H152.889L156.9 14.3493C157.25 15.0493 157.654 15.8838 158.138 16.853L158.731 18.0914L159.323 19.3568H159.431L159.404 18.3606L159.377 17.3645L159.35 15.3723V6.54199H162.204Z" fill="white"></path><path d="M173.619 9.1534V21.9412H170.684V9.1534H166.242V6.54199H178.222V9.1534H173.619Z" fill="white"></path><path d="M188.668 6.40771C191.468 6.40771 193.272 6.86538 194.079 7.80765C194.887 8.74991 195.291 10.8229 195.291 14.0535C195.291 17.5802 194.887 19.8148 194.079 20.7301C193.272 21.6454 191.306 22.1031 188.21 22.1031C185.41 22.1031 183.607 21.6454 182.772 20.757C181.964 19.8417 181.534 17.8495 181.534 14.7804C181.534 11.119 181.938 8.80375 182.745 7.86149C183.553 6.86539 185.518 6.40771 188.668 6.40771ZM188.426 8.91144C186.46 8.91144 185.303 9.15374 184.98 9.66525C184.657 10.1768 184.495 11.9267 184.495 14.8881C184.495 17.0957 184.684 18.4417 185.06 18.8725C185.437 19.3302 186.595 19.5455 188.48 19.5455C190.283 19.5455 191.387 19.3032 191.737 18.7917C192.087 18.2802 192.275 16.7457 192.275 14.1612C192.275 11.5767 192.114 10.0691 191.764 9.58448C191.441 9.12681 190.337 8.91144 188.426 8.91144Z" fill="white"></path><path d="M214.082 6.54199V21.9412H209.128L204.74 13.4878C204.525 13.0571 204.175 12.3302 203.717 11.2802L203.233 10.1764L202.748 9.07264H202.64L202.694 10.0957L202.721 11.0918L202.748 13.1109V21.9412H199.813V6.54199H204.74L208.752 14.3493C209.101 15.0493 209.505 15.8838 209.99 16.853L210.582 18.0914L211.174 19.3568H211.282L211.255 18.3606L211.228 17.3645L211.201 15.3723V6.54199H214.082Z" fill="white"></path><path d="M222.266 6.54199V21.9412H219.332V6.54199H222.266Z" fill="white"></path><path d="M233.95 6.40771C236.75 6.40771 238.554 6.86538 239.361 7.80765C240.169 8.74991 240.573 10.8229 240.573 14.0535C240.573 17.5802 240.169 19.8148 239.361 20.7301C238.554 21.6454 236.589 22.1031 233.493 22.1031C230.693 22.1031 228.889 21.6454 228.054 20.757C227.247 19.8417 226.816 17.8495 226.816 14.7804C226.816 11.119 227.22 8.80375 228.027 7.86149C228.835 6.86539 230.827 6.40771 233.95 6.40771ZM233.735 8.91144C231.77 8.91144 230.612 9.15374 230.289 9.66525C229.966 10.1768 229.804 11.9267 229.804 14.8881C229.804 17.0957 229.993 18.4417 230.37 18.8725C230.746 19.3302 231.904 19.5455 233.789 19.5455C235.592 19.5455 236.696 19.3032 237.046 18.7917C237.396 18.2802 237.585 16.7457 237.585 14.1612C237.585 11.5767 237.423 10.0691 237.073 9.58448C236.75 9.12681 235.619 8.91144 233.735 8.91144Z" fill="white"></path><path d="M76.1618 26.7329V33.248H74.9234V29.6943C74.9234 29.3982 74.9234 29.102 74.9503 28.7251L74.9772 28.2405L75.0041 27.7559H74.9772L74.8157 28.2136L74.6811 28.6713C74.5465 29.0751 74.4388 29.3712 74.358 29.5866L72.9311 33.2749H71.8004L70.3467 29.6135C70.2659 29.4251 70.1582 29.102 70.0236 28.6982L69.889 28.2405L69.7544 27.7829H69.7275L69.7544 28.2674L69.7813 28.752C69.8082 29.1289 69.8082 29.4251 69.8082 29.6943V33.248H68.5698V26.7329H70.589L71.7466 29.7481C71.8274 29.9635 71.935 30.2597 72.0697 30.6635L72.2043 31.1212L72.3389 31.5788H72.3927L72.5273 31.1212L72.6619 30.6635C72.7696 30.2866 72.8773 29.9904 72.9581 29.7751L74.1157 26.7329H76.1618Z" fill="white"></path><path d="M82.4618 32.01H79.662L79.2581 33.2753H77.939L80.0927 26.7603H81.9503L84.1579 33.2753H82.8656L82.4618 32.01ZM82.1926 31.0947L81.0619 27.7025L79.9581 31.0947H82.1926Z" fill="white"></path><path d="M92.0188 26.7334V33.2485H89.9189L88.0613 29.6679C87.9806 29.4794 87.819 29.1833 87.6306 28.7256L87.4152 28.2679L87.1998 27.8103H87.146L87.1729 28.241L87.1998 28.6718V29.5333V33.2754H85.9614V26.7334H88.0613L89.7574 30.0448C89.9189 30.3409 90.0805 30.6909 90.2689 31.1216L90.5112 31.6601L90.7535 32.1985H90.8073L90.7804 31.7678L90.7535 31.337V30.5024V26.7334H92.0188Z" fill="white"></path><path d="M98.5606 26.7334H99.799V31.0678C99.799 31.9831 99.6374 32.5754 99.2875 32.8716C98.9375 33.1677 98.2375 33.3023 97.1606 33.3023C96.0299 33.3023 95.2761 33.1677 94.9261 32.8716C94.5761 32.6023 94.3877 32.0101 94.3877 31.1216V26.7334H95.6261V31.1486C95.6261 31.6332 95.7069 31.9293 95.8953 32.0639C96.0568 32.1985 96.4607 32.2524 97.1068 32.2524C97.7529 32.2524 98.1567 32.1985 98.3452 32.0639C98.5067 31.9293 98.5875 31.6062 98.5875 31.0947V26.7334H98.5606Z" fill="white"></path><path d="M103.38 27.7833V29.5333H106.314V30.5832H103.38V33.2754H102.141V26.7334H106.449V27.7833H103.38Z" fill="white"></path><path d="M112.372 32.01H109.572L109.168 33.2753H107.849L110.03 26.7603H111.887L114.095 33.2753H112.803L112.372 32.01ZM112.103 31.0947L110.972 27.7025L109.868 31.0947H112.103Z" fill="white"></path><path d="M119.883 30.9333H121.122V31.1487C121.122 32.064 120.96 32.6294 120.637 32.8986C120.314 33.1678 119.56 33.3024 118.429 33.3024C117.137 33.3024 116.356 33.0871 116.06 32.6832C115.764 32.2525 115.603 31.1487 115.603 29.318C115.603 28.2412 115.818 27.5412 116.195 27.1912C116.599 26.8412 117.433 26.6797 118.725 26.6797C119.668 26.6797 120.287 26.8143 120.583 27.1104C120.906 27.3797 121.041 27.945 121.041 28.7796V28.9142H119.802V28.7527C119.802 28.3219 119.722 28.0527 119.56 27.945C119.399 27.8373 119.022 27.7566 118.456 27.7566C117.702 27.7566 117.218 27.8373 117.083 28.0258C116.922 28.2142 116.841 28.7796 116.841 29.6949C116.841 30.9333 116.922 31.6871 117.056 31.9025C117.191 32.1448 117.649 32.2525 118.402 32.2525C119.022 32.2525 119.425 32.1986 119.587 32.064C119.748 31.9294 119.856 31.6602 119.856 31.2295L119.883 30.9333Z" fill="white"></path><path d="M125.725 27.864V33.2753H124.487V27.864H122.602V26.7603H127.663V27.864H125.725Z" fill="white"></path><path d="M133.694 26.7334H134.932V31.0678C134.932 31.9831 134.771 32.5754 134.421 32.8716C134.071 33.1677 133.371 33.3023 132.294 33.3023C131.163 33.3023 130.409 33.1677 130.059 32.8716C129.709 32.6023 129.521 32.0101 129.521 31.1216V26.7334H130.759V31.1486C130.759 31.6332 130.84 31.9293 131.002 32.0639C131.163 32.1985 131.594 32.2524 132.213 32.2524C132.859 32.2524 133.263 32.1985 133.452 32.0639C133.613 31.9293 133.694 31.6062 133.694 31.0947V26.7334Z" fill="white"></path><path d="M137.301 33.2754V26.7334H140.505C141.313 26.7334 141.851 26.868 142.147 27.1372C142.443 27.4064 142.605 27.918 142.605 28.6448C142.605 29.291 142.524 29.7486 142.389 29.9909C142.228 30.2332 141.932 30.3948 141.474 30.5024V30.5563C142.201 30.6101 142.551 31.014 142.551 31.8216V33.2485H141.313V32.0639C141.313 31.3909 140.99 31.0678 140.317 31.0678H138.54V33.2754H137.301ZM138.54 30.0179H140.317C140.747 30.0179 141.016 29.9371 141.151 29.8025C141.286 29.6409 141.366 29.3448 141.366 28.8871C141.366 28.4295 141.313 28.1333 141.178 27.9987C141.07 27.8641 140.801 27.7833 140.397 27.7833H138.54V30.0179Z" fill="white"></path><path d="M145.916 27.7833V29.4525H148.985V30.3678H145.916V32.1985H149.174V33.2485H144.678V26.7334H149.147V27.7833H145.916Z" fill="white"></path><path d="M151.3 33.2754V26.7334H154.504C155.312 26.7334 155.85 26.868 156.146 27.1372C156.442 27.4064 156.604 27.918 156.604 28.6448C156.604 29.291 156.523 29.7486 156.389 29.9909C156.227 30.2332 155.931 30.3948 155.446 30.5024V30.5563C156.173 30.6101 156.523 31.014 156.523 31.8216V33.2485H155.285V32.0639C155.285 31.3909 154.962 31.0678 154.289 31.0678H152.512V33.2754H151.3ZM152.539 30.0179H154.316C154.746 30.0179 155.015 29.9371 155.15 29.8025C155.285 29.6409 155.365 29.3448 155.365 28.8871C155.365 28.4295 155.312 28.1333 155.177 27.9987C155.069 27.8641 154.8 27.7833 154.396 27.7833H152.539V30.0179Z" fill="white"></path><path d="M163.658 28.645H162.473C162.473 28.5911 162.473 28.5373 162.473 28.5104C162.446 28.1335 162.365 27.9181 162.231 27.8104C162.096 27.7296 161.773 27.6758 161.288 27.6758C160.696 27.6758 160.319 27.7296 160.131 27.8373C159.942 27.945 159.862 28.1604 159.862 28.5104C159.862 28.9142 159.942 29.1565 160.077 29.2642C160.212 29.3449 160.696 29.3988 161.531 29.4526C162.5 29.5065 163.119 29.6411 163.415 29.8565C163.711 30.0718 163.846 30.5564 163.846 31.2564C163.846 32.1179 163.684 32.6832 163.334 32.9255C163.011 33.1678 162.258 33.3024 161.127 33.3024C160.104 33.3024 159.431 33.1678 159.081 32.9255C158.758 32.6832 158.569 32.1717 158.569 31.4179V31.1756H159.781V31.3102C159.781 31.7679 159.862 32.0371 160.023 32.1448C160.185 32.2525 160.615 32.3063 161.315 32.3063C161.881 32.3063 162.231 32.2525 162.365 32.1179C162.527 32.0102 162.581 31.7141 162.581 31.3102C162.581 30.9872 162.527 30.7987 162.419 30.691C162.311 30.5833 162.042 30.5295 161.665 30.5026L160.992 30.4487C159.969 30.3949 159.296 30.2334 159.027 30.018C158.731 29.8026 158.596 29.318 158.596 28.5642C158.596 27.8104 158.758 27.2989 159.108 27.0566C159.458 26.8143 160.158 26.6797 161.181 26.6797C162.15 26.6797 162.823 26.7874 163.173 27.0297C163.523 27.272 163.684 27.7027 163.684 28.4027V28.645H163.658Z" fill="white"></path><path d="M173.511 32.01H170.711L170.307 33.2753H168.988L171.169 26.7603H173.027L175.234 33.2753H173.942L173.511 32.01ZM173.215 31.0947L172.084 27.7025L170.98 31.0947H173.215Z" fill="white"></path><path d="M181.83 28.645H180.618C180.618 28.5911 180.618 28.5373 180.618 28.5104C180.592 28.1335 180.511 27.9181 180.376 27.8104C180.242 27.7296 179.919 27.6758 179.434 27.6758C178.842 27.6758 178.465 27.7296 178.276 27.8373C178.088 27.945 178.007 28.1604 178.007 28.5104C178.007 28.9142 178.088 29.1565 178.222 29.2642C178.357 29.3449 178.842 29.3988 179.676 29.4526C180.645 29.5065 181.265 29.6411 181.561 29.8565C181.857 30.0718 181.992 30.5564 181.992 31.2564C181.992 32.1179 181.83 32.6832 181.48 32.9255C181.157 33.1678 180.403 33.3024 179.272 33.3024C178.249 33.3024 177.576 33.1678 177.226 32.9255C176.903 32.6832 176.715 32.1717 176.715 31.4179V31.1756H177.926V31.3102C177.926 31.7679 178.007 32.0371 178.169 32.1448C178.33 32.2525 178.761 32.3063 179.461 32.3063C180.026 32.3063 180.376 32.2525 180.511 32.1179C180.672 32.0102 180.753 31.7141 180.753 31.3102C180.753 30.9872 180.699 30.7987 180.565 30.691C180.457 30.5833 180.188 30.5295 179.811 30.5026L179.138 30.4487C178.115 30.3949 177.442 30.2334 177.173 30.018C176.876 29.8026 176.742 29.318 176.742 28.5642C176.742 27.8104 176.903 27.2989 177.253 27.0566C177.603 26.8143 178.303 26.6797 179.326 26.6797C180.295 26.6797 180.968 26.7874 181.318 27.0297C181.668 27.272 181.83 27.7027 181.83 28.4027V28.645Z" fill="white"></path><path d="M188.883 28.645H187.672C187.672 28.5911 187.672 28.5373 187.672 28.5104C187.645 28.1335 187.564 27.9181 187.429 27.8104C187.295 27.7296 186.972 27.6758 186.487 27.6758C185.895 27.6758 185.518 27.7296 185.33 27.8373C185.141 27.945 185.06 28.1604 185.06 28.5104C185.06 28.9142 185.141 29.1565 185.276 29.2642C185.41 29.3449 185.895 29.3988 186.729 29.4526C187.699 29.5065 188.318 29.6411 188.614 29.8565C188.91 30.0718 189.045 30.5564 189.045 31.2564C189.045 32.1179 188.883 32.6832 188.533 32.9255C188.21 33.1678 187.456 33.3024 186.326 33.3024C185.303 33.3024 184.63 33.1678 184.28 32.9255C183.957 32.6832 183.768 32.1717 183.768 31.4179V31.1756H184.98V31.3102C184.98 31.7679 185.06 32.0371 185.222 32.1448C185.383 32.2525 185.814 32.3063 186.514 32.3063C187.079 32.3063 187.429 32.2525 187.564 32.1179C187.726 32.0102 187.806 31.7141 187.806 31.3102C187.806 30.9872 187.753 30.7987 187.618 30.691C187.51 30.5833 187.241 30.5295 186.864 30.5026L186.191 30.4487C185.168 30.3949 184.495 30.2334 184.226 30.018C183.93 29.8026 183.795 29.318 183.795 28.5642C183.795 27.8104 183.957 27.2989 184.307 27.0566C184.656 26.8143 185.33 26.6797 186.379 26.6797C187.349 26.6797 188.022 26.7874 188.372 27.0297C188.722 27.272 188.883 27.7027 188.883 28.4027V28.645Z" fill="white"></path><path d="M193.837 26.6797C195.021 26.6797 195.775 26.8681 196.125 27.272C196.475 27.6758 196.637 28.5373 196.637 29.9103C196.637 31.391 196.475 32.3333 196.125 32.7371C195.775 33.114 194.941 33.3294 193.648 33.3294C192.464 33.3294 191.71 33.1409 191.36 32.764C191.01 32.3871 190.849 31.5256 190.849 30.2334C190.849 28.6719 191.01 27.7027 191.36 27.2989C191.656 26.8951 192.491 26.6797 193.837 26.6797ZM193.729 27.7566C192.895 27.7566 192.41 27.8642 192.275 28.0796C192.141 28.295 192.06 29.0219 192.06 30.2872C192.06 31.2295 192.141 31.7948 192.302 31.9833C192.464 32.1717 192.949 32.2794 193.756 32.2794C194.537 32.2794 194.995 32.1717 195.129 31.9564C195.291 31.741 195.371 31.0949 195.371 29.9911C195.371 28.8873 195.291 28.2411 195.156 28.0527C195.022 27.8373 194.537 27.7566 193.729 27.7566Z" fill="white"></path><path d="M202.694 30.9333H203.933V31.1487C203.933 32.064 203.771 32.6294 203.448 32.8986C203.125 33.1678 202.398 33.3024 201.24 33.3024C199.948 33.3024 199.167 33.0871 198.871 32.6832C198.575 32.2525 198.414 31.1487 198.414 29.318C198.414 28.2412 198.602 27.5412 199.006 27.1912C199.41 26.8412 200.244 26.6797 201.536 26.6797C202.479 26.6797 203.098 26.8143 203.394 27.1104C203.717 27.3797 203.852 27.945 203.852 28.7796V28.9142H202.613V28.7527C202.613 28.3219 202.533 28.0527 202.371 27.945C202.21 27.8373 201.833 27.7566 201.267 27.7566C200.513 27.7566 200.029 27.8373 199.894 28.0258C199.733 28.2142 199.652 28.7796 199.652 29.6949C199.652 30.9333 199.733 31.6871 199.867 31.9025C200.002 32.1448 200.46 32.2525 201.213 32.2525C201.833 32.2525 202.236 32.1986 202.398 32.064C202.586 31.9294 202.667 31.6602 202.667 31.2295L202.694 30.9333Z" fill="white"></path><path d="M207.163 26.7334V33.2485H205.925V26.7334H207.163Z" fill="white"></path><path d="M213.49 32.01H210.69L210.286 33.2753H208.967L211.148 26.7603H213.006L215.213 33.2753H213.894L213.49 32.01ZM213.194 31.0947L212.063 27.7025L210.959 31.0947H213.194Z" fill="white"></path><path d="M219.574 27.864V33.2753H218.336V27.864H216.451V26.7603H221.512V27.864H219.574Z" fill="white"></path><path d="M224.582 26.7334V33.2485H223.343V26.7334H224.582Z" fill="white"></path><path d="M229.67 26.6797C230.855 26.6797 231.608 26.8681 231.958 27.272C232.308 27.6758 232.47 28.5373 232.47 29.9103C232.47 31.391 232.308 32.3333 231.958 32.7371C231.608 33.114 230.801 33.3294 229.482 33.3294C228.297 33.3294 227.543 33.1409 227.193 32.764C226.843 32.3871 226.682 31.5256 226.682 30.2334C226.682 28.6719 226.843 27.7027 227.193 27.2989C227.516 26.8951 228.351 26.6797 229.67 26.6797ZM229.589 27.7566C228.755 27.7566 228.27 27.8642 228.135 28.0796C228.001 28.295 227.92 29.0219 227.92 30.2872C227.92 31.2295 228.001 31.7948 228.162 31.9833C228.324 32.1717 228.808 32.2794 229.616 32.2794C230.397 32.2794 230.855 32.1717 230.989 31.9564C231.151 31.741 231.204 31.0949 231.204 29.9911C231.204 28.8873 231.124 28.2411 230.989 28.0527C230.855 27.8373 230.37 27.7566 229.589 27.7566Z" fill="white"></path><path d="M240.573 26.7334V33.2485H238.473L236.616 29.6679C236.535 29.4794 236.373 29.1833 236.185 28.7256L235.969 28.2679L235.754 27.8103H235.7L235.727 28.241L235.754 28.6718V29.5333V33.2754H234.516V26.7334H236.616L238.312 30.0448C238.473 30.3409 238.635 30.6909 238.823 31.1216L239.065 31.6601L239.308 32.1985H239.362L239.335 31.7678L239.308 31.337V30.5024V26.7334H240.573Z" fill="white"></path><path d="M62.7815 28.6178L62.4585 28.2948L62.1085 27.541L61.6508 26.9218L60.9239 25.0372L60.0625 24.1219L59.5779 18.4414L59.3356 15.3992L59.0125 15.157L57.6395 15.4262L57.6126 15.3992L57.1011 15.1031L56.6165 14.6993L56.3203 14.8608L56.2665 14.8339L55.3511 14.457L53.0897 13.8109H52.1744L52.0667 13.9186L51.4206 13.8109L50.9898 14.1878L50.0745 14.2147L49.4822 14.2955L48.5938 15.0493L48.1361 14.78L47.1938 14.457L46.0631 14.4301L45.5516 13.9724L44.4478 14.2147L43.2902 14.3762L41.7557 14.4301L41.0557 14.2685L40.6788 13.8916L38.8481 13.4878L37.8789 13.0571L37.2866 13.2994L36.3444 12.8686L35.3214 12.7878L34.9983 11.9263L31.6331 11.011L31.6061 0H16.9607L17.0146 25.3334L0 25.2795L0.107687 25.7103L0.807653 26.491L1.72299 27.5679L2.01913 28.0794L2.7191 28.5909L3.25753 28.8063L4.01134 29.7216L5.03437 30.9331L5.78818 31.5523L7.37656 32.7369L8.07653 33.383L8.26498 34.1637L8.21114 34.3522L8.77649 35.1329L8.93802 35.2675L8.99187 35.5637L8.85726 36.1828L8.99187 37.0982L9.69183 38.3366L9.96105 38.7404L11.0648 39.4404L11.4417 40.0865L12.4109 40.6788L13.3532 40.9211L13.5955 41.3249L14.0262 41.5134L14.457 41.5403L14.8339 41.9172L15.5069 42.1864L15.7492 42.5633L16.2607 42.5364L16.4492 42.671L16.9607 42.2402L16.9338 42.0518L17.6338 41.4326L18.0107 40.4365L18.3337 39.7365L18.576 39.1173L19.5452 38.2289L19.5721 38.1751L19.7067 38.1481L22.022 38.0674L23.9604 38.2558L25.2526 38.902H25.3872V39.2519L25.5757 39.3058L26.1949 39.8173L27.191 40.5442L27.9986 41.298L27.9717 41.4595L28.5371 41.9172L28.6178 42.6979L28.8871 42.9671L29.1293 43.371L29.8562 44.6363L29.7755 44.8517L30.1524 45.3901L30.1255 45.7132L30.7985 46.6016L30.8793 46.8708L31.5254 47.14L32.1984 47.9746L32.1715 48.1361L32.4676 48.7284L32.4946 49.0245L32.9522 49.4284L33.8137 50.0745L34.0291 49.9937L34.3252 50.2629L34.3791 51.3667L34.1368 51.5552L34.7829 52.4167V52.8474L35.0521 53.7358L35.6175 54.2204L36.1828 55.9434L36.4251 56.0511L36.5059 56.5357L36.7751 56.778L38.3097 57.128L38.525 57.1549L38.9289 57.5318L39.6558 57.6126L39.8173 57.7472L40.3557 58.0164L40.5173 58.0433L41.298 58.5548L41.9979 58.6625L42.8864 58.4741L43.1825 58.5279L43.7748 58.6356L44.2863 58.9317L44.744 59.3356L45.3632 59.6317L46.1708 59.0125L46.3862 58.851L46.2516 57.9087L46.0631 57.7472L46.117 57.3703L45.8208 56.4011L45.2016 55.055L44.744 53.9512L46.1977 48.4323L46.8977 47.2208L47.1669 46.79L48.0823 46.1708L48.6476 45.6862L49.9129 44.9055L53.332 43.1017V43.0748L54.8127 42.2402L55.1896 41.8633L55.4588 41.5134L56.5626 39.9788L57.5318 39.3327L59.7125 37.9866L61.0047 37.3136L61.5431 36.5059L62.4585 34.9445L62.5931 34.4599L62.4316 33.6253L62.1623 33.0868L62.6469 31.3908L62.7815 28.6178ZM48.513 45.2016C41.1095 36.3175 29.8293 29.1563 17.553 25.5218V21.4566C30.3408 26.1141 41.7018 34.7022 48.7822 45.067L48.513 45.2016ZM41.8903 36.1559C41.9441 36.0213 41.971 35.8598 42.0249 35.7252L43.0748 35.779C43.1287 35.5367 43.1825 35.3214 43.2094 35.0791L42.1864 34.756C42.2133 34.5945 42.2133 34.4599 42.2402 34.2983L43.2902 34.1637C43.2902 34.056 43.2902 33.9214 43.2902 33.8137C43.2902 33.6791 43.2902 33.5714 43.2902 33.4638L42.2402 33.3291C42.2402 33.1676 42.2133 33.033 42.1864 32.8715L43.2094 32.5484C43.1825 32.3061 43.1287 32.0638 43.0748 31.8484L42.0249 31.9292C41.9979 31.7946 41.9441 31.6331 41.8903 31.4985L42.8325 30.9869C42.7518 30.7716 42.671 30.5293 42.5633 30.3139L41.5403 30.5831C41.4864 30.4485 41.4057 30.3139 41.3249 30.1793L42.1595 29.5063C42.0518 29.2909 41.9172 29.1024 41.7826 28.8871L40.8134 29.3447C40.7326 29.2101 40.6249 29.1024 40.5442 28.9947L41.2441 28.1871C41.0826 27.9986 40.9211 27.8371 40.7595 27.6487L39.898 28.2679C39.7904 28.1602 39.6827 28.0525 39.575 27.9717L40.1134 27.0564C39.925 26.8948 39.7365 26.7602 39.5481 26.6256L38.8212 27.3794C38.6866 27.2987 38.5789 27.2179 38.4443 27.1371L38.7943 26.141C38.5789 26.0333 38.3635 25.9257 38.1481 25.818L37.5559 26.7064C37.4212 26.6525 37.2866 26.5987 37.1251 26.5449L37.2866 25.4949C37.0713 25.4141 36.829 25.3603 36.5867 25.3065L36.1828 26.2756C36.0482 26.2487 35.8867 26.2218 35.7252 26.1949L35.6983 25.118C35.456 25.0911 35.2137 25.0642 34.9714 25.0642L34.756 26.1141C34.6752 26.1141 34.5945 26.1141 34.5406 26.1141C34.4599 26.1141 34.3791 26.1141 34.3252 26.1141L34.1099 25.0642C33.8676 25.0642 33.6253 25.0911 33.383 25.118L33.3561 26.1949C33.1945 26.2218 33.0599 26.2487 32.8984 26.2756L32.4946 25.3065C32.2523 25.3603 32.0369 25.4411 31.7946 25.4949L31.9561 26.5449C31.8215 26.5987 31.66 26.6525 31.5254 26.7064L30.9331 25.818C30.7177 25.9257 30.5024 26.0333 30.287 26.141L30.637 27.1371C30.5024 27.2179 30.3677 27.2987 30.2601 27.3794L29.5332 26.6256C29.4255 26.7064 29.3447 26.7602 29.237 26.841C29.0217 26.7064 28.8332 26.5987 28.6178 26.491C30.2331 25.1988 32.2523 24.445 34.4868 24.445C39.6558 24.445 43.8825 28.6717 43.8825 33.8407C43.8825 35.2406 43.5594 36.5867 43.021 37.7712C42.8864 37.6366 42.7518 37.502 42.6171 37.3674C42.6979 37.152 42.7787 36.9367 42.8594 36.7213L41.8903 36.1559ZM44.1248 33.7599C44.1248 28.4294 39.7904 24.095 34.4599 24.095C32.1446 24.095 30.0178 24.9026 28.3755 26.2756C27.7833 25.9257 27.191 25.6026 26.5987 25.2795C28.6717 23.395 31.4177 22.2374 34.4599 22.2374C40.8942 22.2374 46.117 27.4602 46.117 33.8945C46.117 35.9136 45.6055 37.8251 44.6901 39.4942C44.2055 38.9558 43.7209 38.4174 43.2364 37.9058C43.7748 36.6405 44.1248 35.2406 44.1248 33.7599ZM47.6515 33.733C47.6515 34.0291 47.6515 34.3253 47.6246 34.6214L49.7245 35.9136C49.6437 36.479 49.536 37.0174 49.4014 37.5559L46.9785 37.9597C46.79 38.525 46.5477 39.0904 46.2785 39.6288L47.7054 41.621C47.5438 41.9172 47.3554 42.1864 47.1669 42.4825C46.467 41.5672 45.7132 40.6519 44.9055 39.7634C45.9016 38.0135 46.44 36.0213 46.44 33.8676C46.44 27.2448 41.0557 21.8335 34.406 21.8335C31.2562 21.8335 28.3755 23.072 26.2218 25.0642C25.7641 24.8219 25.3065 24.5796 24.8219 24.3373C25.0642 24.095 25.2795 23.8796 25.5488 23.6642L24.9834 21.2682C25.4411 20.9182 25.8987 20.6221 26.3833 20.3259L28.3755 21.7528C28.914 21.4836 29.4793 21.2413 30.0447 21.0528L30.4485 18.6299C30.7716 18.5491 31.1216 18.4683 31.4715 18.4145H32.1715L33.4099 20.4067C33.706 20.3798 34.0022 20.3798 34.2983 20.3798C34.5945 20.3798 34.8906 20.3798 35.1867 20.4067L36.4251 18.4145H37.1251C37.4751 18.4683 37.7982 18.5491 38.1481 18.6299L38.552 21.0528C39.1173 21.2413 39.6827 21.4836 40.2211 21.7528L42.2133 20.3259C42.6979 20.6221 43.1556 20.9182 43.6133 21.2682L43.0748 23.6912C43.5325 24.095 43.9632 24.5257 44.3401 24.9565L46.7362 24.3911C47.0862 24.8488 47.3823 25.3065 47.6784 25.791L46.2516 27.7833C46.5208 28.3217 46.7631 28.8871 46.9515 29.4524L49.3745 29.8562C49.5091 30.3947 49.6168 30.96 49.6976 31.4985L47.5977 32.7907C47.6515 33.1407 47.6515 33.4368 47.6515 33.733Z" fill="white"></path></svg> 