<?xml version="1.0" encoding="utf-8"?>
<!-- Generator: Adobe Illustrator 24.2.0, SVG Export Plug-In . SVG Version: 6.00 Build 0)  -->
<svg version="1.1" id="Layer_1" xmlns="http://www.w3.org/2000/svg" xmlns:xlink="http://www.w3.org/1999/xlink" x="0px" y="0px"
	 viewBox="0 0 73 69" style="enable-background:new 0 0 73 69;" xml:space="preserve">
<style type="text/css">
	.st0{fill:#D2232A;}
	.st1{fill:#FFFFFF;}
</style>
<g>
	<path class="st0" d="M20.8,29.7L20.8,29.7l-19,0l0.6,0.7l1.1,1.2l0.3,0.5l0.7,0.5l0.7,0.2L6,34.1l1.2,1.4l0.8,0.7l1.8,1.3l0.9,0.8
		l0.3,1.1l0,0.2l0.5,0.7l0.2,0.2l0.1,0.5l-0.2,0.7l0.1,0.9l0.7,1.3l0.2,0.4l1.2,0.8l0.1,0.2l0.3,0.5l1,0.6l0.9,0.2l0.2-0.1l0.4,0.6
		l0.3,0.1l0.6,0l0.5,0.5l0.8,0.3l0.2,0.3l0.5,0l0.1,0.1l0.2-0.2l0-0.2l0.8-0.8l0.4-1.1l0.4-0.8l0.3-0.8l1.1-1l0.1-0.2l0.4-0.1
		l2.7-0.1l2.3,0.2l1.4,0.7h0.5v0.5l0.8,0.6l1.1,0.8l1.1,1l0,0.2l0.6,0.5l0.1,0.9L34,49l0.3,0.5l0.9,1.6l-0.1,0.2l0.4,0.6l0,0.4
		l0.7,0.9l0.1,0.2l0.6,0.3l0.9,1.1l0,0.2l0.3,0.6l0,0.2l0.4,0.3l0.8,0.6l0.3-0.1l0.6,0.6l0.1,1.6L40.2,59l0.6,0.8v0.6l0.2,0.8
		l0.6,0.5l0.6,1.9l0.3,0.1l0.1,0.6l0.1,0.1l1.6,0.4l0.3,0.1l0.4,0.4l0.8,0.1l0.3,0.2l0.5,0.2l0.2,0l0.9,0.6l0.6,0.1l1-0.2l0.4,0.1
		l0.7,0.1l0.7,0.4l0.5,0.4l0.4,0.2l0.8-0.6l-0.1-0.7l-0.3-0.2l0.1-0.5l-0.3-1l-0.7-1.5l-0.6-1.4l1.7-6.4l0.8-1.4l0.3-0.6l1.1-0.8
		l0.7-0.5h0C48.2,42.7,35.7,34.1,20.8,29.7z"/>
	<path d="M61,49.1L61,49.1l1.8-1.1l0.4-0.4l0.3-0.4l1.3-1.8l1.2-0.8l2.5-1.5l1.4-0.7l0.5-0.8l1-1.7l0.1-0.4l-0.2-0.8l-0.4-0.7l0.6-2
		l0.2-2.8L71.4,33l-0.4-0.9l-0.5-0.7l-0.8-2.1l-1-1.1L68,21.7l-0.2-3.2l-0.1-0.1l-1.6,0.3L66,18.6l-0.6-0.4L65.1,18l-0.2,0.1
		l-0.3-0.1l-1.1-0.4l-2.5-0.7h-0.8l-0.2,0.1l-0.7-0.1l-0.5,0.4l-1.2,0l-0.5,0.1l-1.2,1l-0.7-0.5l-1-0.3l-1.4,0l-0.5-0.5l-1.1,0.2
		l-1.3,0.2l-1.8,0.1l-1-0.2l-0.4-0.4l-2-0.4l-1-0.4l-0.7,0.2l-1.2-0.5l-1.3-0.1l-0.4-1l-3.9-1.1L36.4,1.4H20.7l0.1,23.4
		c15.7,5.6,28.4,16.1,35.7,26.8l0.9-0.5L61,49.1z"/>
	<path class="st1" d="M56.4,51.6c-7.3-10.7-19.9-21.1-35.7-26.8v4.9c14.9,4.4,27.4,13,35.1,22.2L56.4,51.6z"/>
	<path class="st1" d="M54.9,38.9c0-0.3,0-0.7,0-1l2.4-1.4c-0.1-0.6-0.2-1.2-0.4-1.8l-2.7-0.5c-0.2-0.6-0.5-1.3-0.8-1.9l1.6-2.2
		c-0.3-0.5-0.7-1.1-1.1-1.6l-2.7,0.6c-0.5-0.5-0.9-1-1.4-1.4l0.6-2.7c-0.5-0.4-1-0.7-1.6-1.1l-2.2,1.6c-0.6-0.3-1.2-0.6-1.9-0.8
		l-0.5-2.7c-0.4-0.1-0.8-0.2-1.2-0.2h-0.8L41,24.1c-0.3,0-0.7,0-1,0c-0.3,0-0.7,0-1,0l-1.4-2.2h-0.8c-0.4,0.1-0.8,0.2-1.2,0.2
		l-0.5,2.7c-0.6,0.2-1.3,0.5-1.9,0.8L31,24c-0.5,0.3-1.1,0.7-1.6,1.1l0.6,2.7c-0.3,0.2-0.5,0.5-0.8,0.8c0.5,0.3,1.1,0.5,1.6,0.8
		c2.4-2.2,5.7-3.6,9.2-3.6c7.5,0,13.5,6,13.5,13.5c0,2.4-0.6,4.6-1.7,6.6c0.9,1,1.7,2,2.5,3c0.2-0.3,0.4-0.6,0.6-1l-1.6-2.2
		c0.3-0.6,0.6-1.2,0.8-1.9l2.7-0.5c0.2-0.6,0.3-1.2,0.4-1.8L54.9,40C54.9,39.6,54.9,39.3,54.9,38.9z"/>
	<path class="st1" d="M40.1,28.2c6,0,10.9,4.8,10.9,10.8c0,1.7-0.4,3.2-1.1,4.6c0.6,0.6,1.1,1.2,1.6,1.8c1-1.9,1.6-4,1.6-6.3
		c0-7.2-5.9-13-13.1-13c-3.4,0-6.5,1.3-8.8,3.4c0.7,0.4,1.3,0.7,2,1.1C35.1,29.1,37.5,28.2,40.1,28.2z"/>
	<path class="st1" d="M40.1,28.4c-2.5,0-4.8,0.9-6.6,2.3c0.2,0.1,0.5,0.3,0.7,0.4c0.1-0.1,0.2-0.2,0.3-0.2l0.8,0.8
		c0.2-0.1,0.3-0.2,0.4-0.3l-0.4-1.1c0.2-0.1,0.5-0.2,0.7-0.4l0.7,1c0.2-0.1,0.3-0.1,0.5-0.2L37,29.6c0.2-0.1,0.5-0.2,0.8-0.2
		l0.5,1.1c0.2,0,0.3-0.1,0.5-0.1l0-1.2c0.3,0,0.5-0.1,0.8-0.1l0.2,1.2c0.1,0,0.2,0,0.2,0c0.1,0,0.2,0,0.2,0l0.2-1.2
		c0.3,0,0.5,0,0.8,0.1l0,1.2c0.2,0,0.3,0.1,0.5,0.1l0.5-1.1c0.3,0.1,0.5,0.2,0.8,0.2L43,30.8c0.2,0.1,0.3,0.1,0.5,0.2l0.7-1
		c0.2,0.1,0.5,0.2,0.7,0.4l-0.4,1.1c0.2,0.1,0.3,0.2,0.4,0.3l0.8-0.8c0.2,0.2,0.4,0.3,0.6,0.5l-0.6,1c0.1,0.1,0.2,0.2,0.4,0.3l1-0.7
		c0.2,0.2,0.4,0.4,0.5,0.6l-0.8,0.9c0.1,0.1,0.2,0.3,0.3,0.4l1.1-0.5c0.2,0.2,0.3,0.5,0.4,0.7l-0.9,0.8c0.1,0.2,0.2,0.3,0.2,0.5
		l1.2-0.3c0.1,0.2,0.2,0.5,0.3,0.8l-1.1,0.6c0.1,0.2,0.1,0.3,0.2,0.5l1.2-0.1c0.1,0.3,0.1,0.5,0.2,0.8l-1.2,0.4c0,0.2,0,0.3,0.1,0.5
		l1.2,0.2c0,0.1,0,0.3,0,0.4c0,0.1,0,0.3,0,0.4l-1.2,0.2c0,0.2,0,0.3-0.1,0.5l1.2,0.4c0,0.3-0.1,0.5-0.2,0.8l-1.2-0.1
		c0,0.2-0.1,0.3-0.2,0.5l1.1,0.6c-0.1,0.2-0.2,0.5-0.3,0.7c0.2,0.2,0.3,0.3,0.5,0.5c0.6-1.4,1-2.8,1-4.4
		C50.6,33.2,45.9,28.4,40.1,28.4z"/>
	<path class="st1" d="M72.3,32.7L72,32.4l-0.4-0.8l0,0l0,0l-0.5-0.6l-0.8-2l0-0.1l-0.1-0.1l-0.9-0.9l-0.5-6.2l-0.3-3.4l0-0.2
		l-0.2-0.1l-0.4-0.3l-0.2-0.1l-0.2,0l-1.3,0.3l-0.4-0.2l-0.5-0.4l-0.3-0.2l-0.3,0.2l-0.1,0.1l-0.9-0.4l0,0l0,0L61.2,16l-0.1,0h-0.1
		h-1h-0.2l-0.1,0.1L59.3,16L59,16l-0.2,0.2l-0.4,0.3l-0.9,0l0,0l0,0l-0.7,0.1l-0.1,0l-0.1,0.1L56,17.3l-0.2-0.1l0,0l0,0l-1.1-0.4
		l-0.1,0l-0.1,0l-1.1,0l-0.4-0.4l-0.2-0.2l-0.2,0.1l-1.2,0.3L50,16.6l-1.6,0.1l-0.6-0.1l-0.3-0.3l-0.1-0.1l-0.1,0l-2-0.4l-1-0.5
		L44,15.1l-0.2,0.1l-0.5,0.2L42.4,15l-0.1,0l-0.1,0l-0.8-0.1l-0.3-0.7l-0.1-0.2l-0.2-0.1l-3.5-1L37.3,1l0-0.5h-0.5H20.3h-0.5l0,0.5
		l0.1,27.9l-18.7,0l-0.7,0l0.2,0.6l0.1,0.4l0,0.1l0.1,0.1l0.8,0.8l1,1.2L3,32.6l0.1,0.1l0.1,0.1L4,33.3l0,0l0.1,0l0.5,0.2l0.8,0.9
		l1.2,1.4l0,0l0,0l0.8,0.7L9.2,38l0.7,0.6l0.1,0.6l0,0.1l-0.1,0.2l0.1,0.2l0.6,0.9l0,0.1l0.1,0l0,0l0,0.1l-0.1,0.6l0,0.1l0,0.1
		l0.2,1l0,0.1l0,0.1l0.8,1.4l0.3,0.5l0.1,0.1l0.1,0.1l1.1,0.7l0.4,0.6l0.1,0.1l0.1,0.1L15,47l0.1,0l0.1,0l0.9,0.2l0.2,0.3l0.1,0.1
		l0.1,0.1l0.5,0.2l0.1,0l0.1,0l0.3,0l0.3,0.3l0.1,0.1l0.1,0l0.6,0.2l0.2,0.3l0.2,0.2l0.3,0l0.4,0l0.1,0.1l0.3,0.2l0.3-0.2l0.6-0.5
		l0.2-0.2l0-0.2l0.6-0.5l0.1-0.1l0-0.1l0.4-1.1l0.3-0.7l0.2-0.6l1-0.9l2.5-0.1l2.1,0.2l1.3,0.7v0.3l0.3,0.1l0.1,0.1l0.6,0.5l1.1,0.8
		l0.7,0.6l0,0.2l0.2,0.2l0.5,0.4l0.1,0.7l0,0.2l0.1,0.1l0.3,0.3l0.2,0.4l0.7,1.2l0,0l-0.1,0.2l0.1,0.2l0.3,0.5l0,0.2l0,0.2l0.1,0.1
		l0.7,1l0.1,0.2l0.1,0.2l0.2,0.1l0.6,0.3L37,55l0,0.2l0.1,0.1l0.3,0.6l0,0.2l0,0.2l0.1,0.1l0.5,0.5l1,0.7l0.2,0.2l0.2-0.1l0,0.7
		l-0.1,0.1l-0.4,0.3l0.3,0.4L40,60v0.3v0.1l0,0.1l0.3,1l0,0.1l0.1,0.1l0.5,0.5l0.6,1.8l0.1,0.2l0.2,0.1l0,0l0,0.3l0,0.2l0.1,0.1
		l0.3,0.3l0.1,0.1l0.1,0l1.7,0.4l0.1,0l0.3,0.3l0.1,0.1l0.2,0l0.7,0.1l0.1,0.1l0,0l0.1,0l0.6,0.3l0.1,0l0.1,0l0.1,0l0.8,0.5l0.1,0.1
		l0.1,0l0.8,0.1l0.1,0l0.1,0l0.9-0.2l0.2,0l0.6,0.1l0.5,0.3l0.5,0.4l0.1,0l0.1,0l0.7,0.3l0.3,0.1l0.2-0.2l0.8-0.7l0.2-0.2l0.2-0.2
		l0-0.3l-0.2-1.1l0-0.2l-0.1-0.1l0,0l0-0.2l0-0.1l0-0.1l-0.3-1.1l0,0l0,0l-0.7-1.5l-0.5-1.1l1.6-6l0.8-1.3l0.2-0.4l0.9-0.7l0.6-0.5
		l1.4-0.9l3.8-2l0.3-0.1v-0.1l1.4-0.8l0.1,0l0,0l0.5-0.5l0,0l0,0l0.3-0.4l1.2-1.7l1-0.7l2.4-1.5l1.4-0.7l0.1-0.1l0.1-0.1l0.6-0.9
		l1-1.8l0-0.1l0-0.1l0.2-0.5l0-0.1l0-0.1l-0.2-0.9l0-0.1l0-0.1l-0.2-0.4l0.5-1.7l0-0.1l0-0.1l0.2-3l0-0.2L72.3,32.7z M61,49.2
		l-3.6,1.9L55.9,52l-0.7,0.5l-1.1,0.8l-0.3,0.6L53,55.3l-1.7,6.4l0.6,1.4l0.7,1.5l0.3,1L52.8,66l0.3,0.2l0.1,0.7l-0.8,0.6l-0.4-0.2
		l-0.7-0.3l-0.7-0.4l-0.7-0.1l-0.4-0.1l-1,0.2l-0.6-0.1l-0.9-0.6l-0.2,0l-0.5-0.2L46,65.4l-0.8-0.1l-0.4-0.4l-0.3-0.1l-1.6-0.4
		l-0.1-0.1l-0.1-0.6l-0.3-0.1l-0.6-1.9L41,61.2l-0.2-0.8v-0.6L40.2,59l0.1-0.1l-0.1-1.6l-0.6-0.6l-0.3,0.1l-0.8-0.6l-0.4-0.3l0-0.2
		L37.7,55l0-0.2l-0.9-1.1l-0.6-0.3l-0.1-0.2l-0.7-0.9l0-0.4l-0.4-0.6l0.1-0.2l-0.9-1.6L34,49l-0.2-0.2l-0.1-0.9L33,47.3l0-0.2
		l-1.1-1l-1.1-0.8l-0.8-0.6v-0.5h-0.5l-1.4-0.7l-2.3-0.2l-2.7,0.1l-0.4,0.1l-0.1,0.2l-1.1,1l-0.3,0.8L21,46.2l-0.4,1.1L19.8,48
		l0,0.2l-0.2,0.2l-0.1-0.1l-0.5,0L18.9,48l-0.8-0.3l-0.5-0.5l-0.6,0l-0.3-0.1l-0.4-0.6l-0.2,0.1l-0.9-0.2l-1-0.6L14,45.2L13.9,45
		l-1.2-0.8l-0.2-0.4l-0.7-1.3l-0.1-0.9l0.2-0.7l-0.1-0.5l-0.2-0.2l-0.5-0.7l0-0.2l-0.3-1.1l-0.9-0.8l-1.8-1.3l-0.8-0.7L6,34.1
		l-0.9-1.1l-0.7-0.2l-0.7-0.5l-0.3-0.5l-1.1-1.2l-0.6-0.7l19,0.1L20.7,1.4h15.7l0.1,12.2l3.9,1.1l0.4,1l1.3,0.1l1.2,0.5l0.7-0.2
		l1,0.4l2,0.4l0.4,0.4l1,0.2l1.8-0.1l1.3-0.2l1.1-0.2l0.5,0.5l1.4,0l1,0.3l0.7,0.5l1.2-1l0.5-0.1l1.2,0l0.5-0.4l0.7,0.1l0.2-0.1h0.8
		l2.5,0.7l1.1,0.4l0.3,0.1l0.2-0.1l0.3,0.3l0.6,0.4l0.2,0.1l1.6-0.3l0.1,0.1l0.2,3.2l0.5,6.5l1,1.1l0.8,2.1l0.5,0.7l0.4,0.9l0.3,0.3
		l-0.2,2.8l-0.6,2l0.4,0.7l0.2,0.8L71.3,40l-1,1.7l-0.5,0.8l-1.4,0.7l-2.5,1.5l-1.2,0.8l-1.3,1.8l-0.3,0.4l-0.4,0.4L61,49.2L61,49.2
		z M21.9,45.5l-0.4,0.8L21.9,45.5l0.3-0.7L21.9,45.5z M34.1,49.6l-0.3-0.5L34.1,49.6l0.8,1.4L34.1,49.6z M70,42.8l-1.5,0.8L70,42.8
		l0.6-0.9L70,42.8z"/>
</g>
</svg>
